<svg width="30" height="30" viewBox="0 0 30 30" fill="none" xmlns="http://www.w3.org/2000/svg">
<g id="Address-icon">
<path id="Vector" d="M15 23.8995L19.9497 18.9497C22.6834 16.2161 22.6834 11.7839 19.9497 9.05025C17.2161 6.31658 12.7839 6.31658 10.0503 9.05025C7.31658 11.7839 7.31658 16.2161 10.0503 18.9497L15 23.8995ZM15 26.7279L8.63604 20.364C5.12132 16.8492 5.12132 11.1508 8.63604 7.63604C12.1508 4.12132 17.8492 4.12132 21.364 7.63604C24.8787 11.1508 24.8787 16.8492 21.364 20.364L15 26.7279ZM15 16C16.1046 16 17 15.1046 17 14C17 12.8954 16.1046 12 15 12C13.8954 12 13 12.8954 13 14C13 15.1046 13.8954 16 15 16ZM15 18C12.7909 18 11 16.2091 11 14C11 11.7909 12.7909 10 15 10C17.2091 10 19 11.7909 19 14C19 16.2091 17.2091 18 15 18Z" fill="#5A5FE3"/>
</g>
</svg>
