<svg width="20" height="20" viewBox="0 0 20 20" fill="none" xmlns="http://www.w3.org/2000/svg">
<g id="Group 21">
<path id="1" d="M10.0033 0C5.82836 0 4.60736 0.00430806 4.37002 0.024002C3.51325 0.0952388 2.98012 0.230173 2.39931 0.519429C1.9517 0.741755 1.59869 0.999469 1.25029 1.36073C0.615799 2.01956 0.231256 2.83009 0.0920511 3.79355C0.0243715 4.26128 0.00468288 4.35668 0.000683632 6.7458C-0.00085454 7.54218 0.000683632 8.59027 0.000683632 9.99608C0.000683632 14.1687 0.00529815 15.3888 0.0252944 15.6258C0.0945121 16.4597 0.225257 16.9844 0.502128 17.5583C1.03126 18.6568 2.04184 19.4815 3.23238 19.7892C3.64461 19.8954 4.09991 19.9538 4.68442 19.9815C4.93206 19.9923 7.4562 20 9.98188 20C12.5076 20 15.0332 19.9969 15.2747 19.9846C15.9515 19.9528 16.3445 19.9 16.7791 19.7877C17.9773 19.4784 18.9694 18.666 19.5093 17.5521C19.7808 16.9921 19.9185 16.4474 19.9808 15.657C19.9943 15.4847 20 12.7372 20 9.99346C20 7.24923 19.9938 4.50684 19.9803 4.33452C19.9172 3.53138 19.7796 2.99133 19.4993 2.42051C19.2694 1.95324 19.014 1.60429 18.6433 1.24749C17.9818 0.615437 17.1727 0.230789 16.2086 0.0917001C15.7414 0.0241559 15.6484 0.0041542 13.258 0L10.0033 0Z" fill="url(#paint0_radial_37647_280)"/>
<path id="1_2" d="M10.0033 0C5.82836 0 4.60736 0.00430806 4.37002 0.024002C3.51325 0.0952388 2.98012 0.230173 2.39931 0.519429C1.9517 0.741755 1.59869 0.999469 1.25029 1.36073C0.615799 2.01956 0.231256 2.83009 0.0920511 3.79355C0.0243715 4.26128 0.00468288 4.35668 0.000683632 6.7458C-0.00085454 7.54218 0.000683632 8.59027 0.000683632 9.99608C0.000683632 14.1687 0.00529815 15.3888 0.0252944 15.6258C0.0945121 16.4597 0.225257 16.9844 0.502128 17.5583C1.03126 18.6568 2.04184 19.4815 3.23238 19.7892C3.64461 19.8954 4.09991 19.9538 4.68442 19.9815C4.93206 19.9923 7.4562 20 9.98188 20C12.5076 20 15.0332 19.9969 15.2747 19.9846C15.9515 19.9528 16.3445 19.9 16.7791 19.7877C17.9773 19.4784 18.9694 18.666 19.5093 17.5521C19.7808 16.9921 19.9185 16.4474 19.9808 15.657C19.9943 15.4847 20 12.7372 20 9.99346C20 7.24923 19.9938 4.50684 19.9803 4.33452C19.9172 3.53138 19.7796 2.99133 19.4993 2.42051C19.2694 1.95324 19.014 1.60429 18.6433 1.24749C17.9818 0.615437 17.1727 0.230789 16.2086 0.0917001C15.7414 0.0241559 15.6484 0.0041542 13.258 0L10.0033 0Z" fill="url(#paint1_radial_37647_280)"/>
<path id="1_3" d="M10.0005 4.28613C8.44854 4.28613 8.25378 4.29292 7.64425 4.32066C7.03591 4.34851 6.62067 4.44482 6.25733 4.58613C5.88149 4.73209 5.56268 4.92732 5.24506 5.24506C4.9272 5.56268 4.73196 5.88149 4.58553 6.2572C4.44386 6.62066 4.34743 7.03601 4.32005 7.64411C4.29279 8.25363 4.28564 8.44851 4.28564 10.0004C4.28564 11.5523 4.29255 11.7465 4.32017 12.356C4.34815 12.9643 4.44446 13.3796 4.58565 13.7429C4.73172 14.1188 4.92696 14.4376 5.2447 14.7552C5.56221 15.073 5.88102 15.2688 6.25662 15.4147C6.62019 15.556 7.03555 15.6523 7.64377 15.6802C8.2533 15.7079 8.44795 15.7147 9.99975 15.7147C11.5518 15.7147 11.746 15.7079 12.3555 15.6802C12.9638 15.6523 13.3795 15.556 13.7431 15.4147C14.1188 15.2688 14.4372 15.073 14.7547 14.7552C15.0725 14.4376 15.2678 14.1188 15.4142 13.743C15.5547 13.3796 15.6511 12.9642 15.6797 12.3561C15.7071 11.7466 15.7142 11.5523 15.7142 10.0004C15.7142 8.44851 15.7071 8.25375 15.6797 7.64423C15.6511 7.03589 15.5547 6.62066 15.4142 6.25732C15.2678 5.88149 15.0725 5.56268 14.7547 5.24506C14.4368 4.9272 14.119 4.73197 13.7428 4.58613C13.3785 4.44482 12.963 4.34851 12.3547 4.32066C11.7451 4.29292 11.5511 4.28613 9.99868 4.28613H10.0005ZM9.48784 5.31589C9.63999 5.31566 9.80975 5.31589 10.0005 5.31589C11.5262 5.31589 11.707 5.32137 12.3095 5.34875C12.8667 5.37423 13.1691 5.46732 13.3705 5.54554C13.6372 5.64911 13.8273 5.77292 14.0272 5.97292C14.2272 6.17292 14.351 6.36339 14.4548 6.63006C14.533 6.83125 14.6262 7.13363 14.6516 7.69078C14.679 8.29316 14.6849 8.47411 14.6849 9.99911C14.6849 11.5241 14.679 11.7051 14.6516 12.3074C14.6261 12.8646 14.533 13.167 14.4548 13.3682C14.3512 13.6348 14.2272 13.8247 14.0272 14.0246C13.8272 14.2246 13.6373 14.3484 13.3705 14.452C13.1693 14.5305 12.8667 14.6234 12.3095 14.6489C11.7072 14.6763 11.5262 14.6822 10.0005 14.6822C8.47462 14.6822 8.29378 14.6763 7.69139 14.6489C7.13425 14.6232 6.83186 14.5301 6.63031 14.4518C6.36364 14.3483 6.17316 14.2245 5.97316 14.0245C5.77316 13.8245 5.64935 13.6345 5.54554 13.3677C5.46732 13.1665 5.37411 12.8641 5.34875 12.307C5.32137 11.7046 5.31589 11.5236 5.31589 9.99768C5.31589 8.47173 5.32137 8.29173 5.34875 7.68935C5.37423 7.1322 5.46732 6.82982 5.54554 6.62839C5.64911 6.36173 5.77316 6.17125 5.97316 5.97125C6.17316 5.77125 6.36364 5.64744 6.63031 5.54363C6.83174 5.46506 7.13425 5.3722 7.69139 5.34661C8.21854 5.3228 8.42283 5.31566 9.48784 5.31447V5.31589ZM13.0507 6.2647C12.6722 6.2647 12.365 6.57149 12.365 6.95018C12.365 7.32875 12.6722 7.63589 13.0507 7.63589C13.4293 7.63589 13.7365 7.32875 13.7365 6.95018C13.7365 6.57161 13.4293 6.2647 13.0507 6.2647ZM10.0005 7.06589C8.37985 7.06589 7.06591 8.37982 7.06591 10.0004C7.06591 11.621 8.37985 12.9343 10.0005 12.9343C11.6211 12.9343 12.9345 11.621 12.9345 10.0004C12.9345 8.37982 11.6211 7.06589 10.0005 7.06589ZM10.0005 8.09566C11.0524 8.09566 11.9052 8.94839 11.9052 10.0004C11.9052 11.0523 11.0524 11.9052 10.0005 11.9052C8.94843 11.9052 8.09568 11.0523 8.09568 10.0004C8.09568 8.94839 8.94843 8.09566 10.0005 8.09566Z" fill="white"/>
</g>
<defs>
<radialGradient id="paint0_radial_37647_280" cx="0" cy="0" r="1" gradientUnits="userSpaceOnUse" gradientTransform="translate(5.31253 21.5404) rotate(-90) scale(19.8215 18.4355)">
<stop stop-color="#FFDD55"/>
<stop offset="0.1" stop-color="#FFDD55"/>
<stop offset="0.5" stop-color="#FF543E"/>
<stop offset="1" stop-color="#C837AB"/>
</radialGradient>
<radialGradient id="paint1_radial_37647_280" cx="0" cy="0" r="1" gradientUnits="userSpaceOnUse" gradientTransform="translate(-3.35011 1.44077) rotate(78.6806) scale(8.86028 36.5225)">
<stop stop-color="#3771C8"/>
<stop offset="0.128" stop-color="#3771C8"/>
<stop offset="1" stop-color="#6600FF" stop-opacity="0"/>
</radialGradient>
</defs>
</svg>
