<svg style="display:none">

    <symbol id="home" xmlns="http://www.w3.org/2000/svg" viewBox="0 0 28 26" >
        <path fill-rule="evenodd" clip-rule="evenodd" d="M15.2125 1.22404L18.3748 4.25117V2.5009C18.3748 2.01768 18.7665 1.62595 19.2497 1.62595H21.8746C22.3578 1.62595 22.7495 2.01768 22.7495 2.5009V8.43892L26.8544 12.3683C27.2034 12.7024 27.2155 13.2563 26.8814 13.6054C26.5473 13.9544 25.9934 13.9665 25.6443 13.6324L24.4994 12.5364V23.4998C24.4994 23.9639 24.3151 24.409 23.9869 24.7371C23.6587 25.0653 23.2136 25.2497 22.7495 25.2497H17.4998C17.0166 25.2497 16.6249 24.8579 16.6249 24.3747V16.9376C16.6249 16.8216 16.5788 16.7103 16.4967 16.6283C16.4147 16.5462 16.3034 16.5001 16.1874 16.5001H11.8126C11.6966 16.5001 11.5853 16.5462 11.5033 16.6283C11.4213 16.7103 11.3752 16.8216 11.3752 16.9376V24.3747C11.3752 24.8579 10.9834 25.2497 10.5002 25.2497H5.2505C4.78639 25.2497 4.3413 25.0653 4.01313 24.7371C3.68495 24.409 3.50059 23.9639 3.50059 23.4998V12.5364L2.35571 13.6324C2.00664 13.9665 1.45279 13.9544 1.11864 13.6054C0.784492 13.2563 0.796589 12.7024 1.14566 12.3683L12.7883 1.22332C13.1452 0.861478 13.6316 0.75129 14.0034 0.751956C14.3737 0.75262 14.8584 0.863712 15.2125 1.22404ZM5.2505 10.8613V23.4998H9.62526V16.9376C9.62526 16.3575 9.85571 15.8011 10.2659 15.3909C10.6761 14.9807 11.2325 14.7502 11.8126 14.7502H16.1874C16.7675 14.7502 17.3239 14.9807 17.7341 15.3909C18.1443 15.8011 18.3748 16.3575 18.3748 16.9376V23.4998H22.7495V10.8613L14.0175 2.50262C14.0122 2.50215 14.0064 2.50187 14.0003 2.50186C13.994 2.50185 13.988 2.50213 13.9825 2.50261L5.2505 10.8613ZM20.9996 6.76382V3.37585H20.1247V5.92627L20.9996 6.76382Z" fill="#inherit"/>
    </symbol>

    <symbol id="add-circle" xmlns="http://www.w3.org/2000/svg" viewBox="0 0 28 28" >
        <path fill-rule="evenodd" clip-rule="evenodd" d="M2.625 14C2.625 7.71988 7.71988 2.625 14 2.625C20.2801 2.625 25.375 7.71988 25.375 14C25.375 20.2801 20.2801 25.375 14 25.375C7.71988 25.375 2.625 20.2801 2.625 14ZM14 4.375C8.68637 4.375 4.375 8.68637 4.375 14C4.375 19.3136 8.68637 23.625 14 23.625C19.3136 23.625 23.625 19.3136 23.625 14C23.625 8.68637 19.3136 4.375 14 4.375ZM14 8.75C14.4832 8.75 14.875 9.14175 14.875 9.625V13.125H18.375C18.8582 13.125 19.25 13.5168 19.25 14C19.25 14.4832 18.8582 14.875 18.375 14.875H14.875V18.375C14.875 18.8582 14.4832 19.25 14 19.25C13.5168 19.25 13.125 18.8582 13.125 18.375V14.875H9.625C9.14175 14.875 8.75 14.4832 8.75 14C8.75 13.5168 9.14175 13.125 9.625 13.125H13.125V9.625C13.125 9.14175 13.5168 8.75 14 8.75Z" fill="#inherit"/>
    </symbol>

    <symbol id="bag-handle" xmlns="http://www.w3.org/2000/svg" viewBox="0 0 28 28" >
        <path fill-rule="evenodd" clip-rule="evenodd" d="M14 3.5C12.8397 3.5 11.7269 3.96094 10.9064 4.78141C10.0859 5.60188 9.625 6.71468 9.625 7.875V8.75H18.375V7.875C18.375 6.71468 17.9141 5.60188 17.0936 4.78141C16.2731 3.96094 15.1603 3.5 14 3.5ZM7.875 7.875V8.75H4.375C3.91087 8.75 3.46575 8.93437 3.13756 9.26256C2.80938 9.59075 2.625 10.0359 2.625 10.5V22.3125C2.625 24.4495 4.4255 26.25 6.5625 26.25H21.4375C23.5487 26.25 25.375 24.5433 25.375 22.3809V10.5C25.375 10.0359 25.1906 9.59075 24.8624 9.26256C24.5342 8.93437 24.0891 8.75 23.625 8.75H20.125V7.875C20.125 6.25055 19.4797 4.69263 18.331 3.54397C17.1824 2.39531 15.6245 1.75 14 1.75C12.3755 1.75 10.8176 2.39531 9.66897 3.54397C8.52031 4.69263 7.875 6.25055 7.875 7.875ZM4.375 10.5H8.75H19.25H23.625V22.3809C23.625 23.5259 22.6338 24.5 21.4375 24.5H6.5625C5.392 24.5 4.375 23.483 4.375 22.3125L4.375 10.5ZM9.625 12.25C9.625 11.7668 9.23325 11.375 8.75 11.375C8.26675 11.375 7.875 11.7668 7.875 12.25V13.125C7.875 14.7495 8.52031 16.3074 9.66897 17.456C10.8176 18.6047 12.3755 19.25 14 19.25C15.6245 19.25 17.1824 18.6047 18.331 17.456C19.4797 16.3074 20.125 14.7495 20.125 13.125V12.25C20.125 11.7668 19.7332 11.375 19.25 11.375C18.7668 11.375 18.375 11.7668 18.375 12.25V13.125C18.375 14.2853 17.9141 15.3981 17.0936 16.2186C16.2731 17.0391 15.1603 17.5 14 17.5C12.8397 17.5 11.7269 17.0391 10.9064 16.2186C10.0859 15.3981 9.625 14.2853 9.625 13.125V12.25Z" fill="#inherit"/>
    </symbol>

    <symbol id="basket" xmlns="http://www.w3.org/2000/svg" viewBox="0 0 28 28" >
        <path d="M14.3391 13.7757C14.3336 13.7757 14.3282 13.7757 14.3227 13.7757C12.5782 13.7757 11.1563 15.1922 11.1453 16.9367C11.1344 18.6867 12.5563 20.1195 14.3063 20.1304H14.3118C16.0618 20.1304 17.4891 18.7086 17.5 16.9531C17.5 15.2086 16.0836 13.7867 14.3391 13.7757ZM14.3172 18.3804C13.5297 18.375 12.8953 17.7351 12.9008 16.9476C12.9063 16.1656 13.5461 15.5312 14.3282 15.5312H14.3336C15.1157 15.5367 15.75 16.1765 15.75 16.9531C15.7446 17.7351 15.1047 18.3804 14.3172 18.3804Z" fill="#inherit"/>
        <path d="M24.2594 9.625H19.6875L14.7 2.975C14.5359 2.75625 14.2734 2.625 14 2.625C13.7266 2.625 13.4641 2.75625 13.3 2.975L8.3125 9.625H3.74063C2.65234 9.625 1.76094 10.5109 1.75 11.5938C1.75 11.7852 1.77187 11.9711 1.83203 12.1516L4.65391 22.1102C5.02578 23.4391 6.25078 24.3633 7.62344 24.3633C7.62891 24.3633 7.62891 24.3633 7.63438 24.3633H20.3656C21.7437 24.3633 22.9688 23.4391 23.357 22.1156L26.1844 12.1461C26.1953 12.0969 26.2062 12.0531 26.2117 12.0039L26.2445 11.7031C26.25 11.6703 26.25 11.6375 26.25 11.5992C26.2391 10.5109 25.3477 9.625 24.2594 9.625ZM14 4.96016L17.5 9.625H10.5L14 4.96016ZM24.4781 11.7359L21.6727 21.6289C21.5031 22.2086 20.9672 22.6133 20.3656 22.6133H7.62344C7.02734 22.6133 6.49687 22.2141 6.33281 21.6344L3.51094 11.6648C3.51094 11.6594 3.50547 11.6539 3.50547 11.643C3.5 11.632 3.5 11.6211 3.5 11.6102C3.5 11.4789 3.60938 11.375 3.74063 11.375H24.2594C24.3797 11.375 24.4781 11.4625 24.4945 11.5773L24.4781 11.7359Z" fill="#inherit"/>
    </symbol>

    <symbol viewBox="0 0 24 24" id="sparkles" xmlns="http://www.w3.org/2000/svg">
        <g clip-path="url(#clip0_38869_11395)">
            <path d="M9.74982 24C9.58575 24 9.42637 23.9672 9.27636 23.8969C8.99041 23.7703 8.77008 23.5407 8.65758 23.2453L6.66997 18.0797L1.49938 16.0922C1.18999 15.975 0.946223 15.7266 0.824341 15.4172C0.594641 14.8125 0.894658 14.1328 1.49938 13.9032L6.66528 11.9157L8.65758 6.75004C8.77477 6.44066 9.02322 6.19691 9.33261 6.07504C9.62326 5.96254 9.94202 5.97191 10.228 6.09847C10.5139 6.22504 10.7343 6.45472 10.8468 6.75004L12.8344 11.9157L18.0003 13.9079C18.3097 14.025 18.5534 14.2735 18.6753 14.5828C18.9097 15.1875 18.605 15.8672 18.0003 16.0969L12.8344 18.0844L10.8421 23.25C10.7249 23.5594 10.4764 23.8032 10.167 23.925C10.0358 23.9766 9.89046 24 9.74982 24ZM2.83539 15L7.34501 16.7344C7.6544 16.8516 7.89816 17.1 8.02004 17.4094L9.75451 21.9188L11.489 17.4094C11.6062 17.1 11.8546 16.8563 12.164 16.7344L16.6736 15L12.164 13.2657C11.8546 13.1485 11.6109 12.9 11.489 12.5907L9.75451 8.08129L8.02004 12.5907C7.90285 12.9 7.6544 13.1438 7.34501 13.2657L2.83539 15Z" fill="#inherit"/>
            <path d="M4.12449 8.25C3.8151 8.25 3.53383 8.05781 3.42602 7.76719L2.61035 5.63906L0.482106 4.82344C0.191466 4.71563 -0.000732422 4.43437 -0.000732422 4.125C-0.000732422 3.81562 0.191466 3.53437 0.482106 3.42656L2.61035 2.61094L3.42602 0.482813C3.53383 0.192188 3.8151 0 4.12449 0C4.43388 0 4.71515 0.192188 4.82297 0.482813L5.63864 2.61094L7.76688 3.42656C8.05752 3.53906 8.24971 3.81562 8.24971 4.125C8.24971 4.43437 8.05752 4.71563 7.76688 4.82344L5.63864 5.63906L4.82297 7.76719C4.71515 8.05781 4.43388 8.25 4.12449 8.25ZM2.84005 4.125L3.45883 4.36406C3.65572 4.43906 3.8151 4.59844 3.8901 4.79531L4.12918 5.41406L4.36825 4.79531C4.44326 4.59844 4.60264 4.43906 4.79953 4.36406L5.41831 4.125L4.79953 3.88594C4.60264 3.81094 4.44326 3.65156 4.36825 3.45469L4.12449 2.84062L3.88542 3.45938C3.81041 3.65625 3.65103 3.81562 3.45414 3.89062L2.84005 4.125Z" fill="#inherit"/>
            <path d="M18.7503 12C18.4409 12 18.1596 11.8078 18.0518 11.5172L16.9221 8.57812L13.9828 7.44844C13.6922 7.33594 13.5 7.05937 13.5 6.75C13.5 6.44063 13.6922 6.15938 13.9828 6.05156L16.9221 4.92188L18.0518 1.98281C18.1643 1.69219 18.4409 1.5 18.7503 1.5C19.0597 1.5 19.3409 1.69219 19.4488 1.98281L20.5785 4.92188L23.5177 6.05156C23.8084 6.16406 24.0006 6.44063 24.0006 6.75C24.0006 7.05937 23.8084 7.34062 23.5177 7.44844L20.5785 8.57812L19.4488 11.5172C19.3409 11.8078 19.0597 12 18.7503 12ZM16.3408 6.75L17.7705 7.29844C17.9674 7.37344 18.1268 7.53281 18.2018 7.72969L18.7503 9.15937L19.2988 7.72969C19.3738 7.53281 19.5331 7.37344 19.73 7.29844L21.1598 6.75L19.73 6.20156C19.5331 6.12656 19.3738 5.96719 19.2988 5.77031L18.7503 4.34062L18.2018 5.77031C18.1268 5.96719 17.9674 6.12656 17.7705 6.20156L16.3408 6.75Z" fill="#inherit"/>
        </g>
        <defs>
            <clipPath id="clip0_38869_11395">
                <rect width="24.0013" height="24" fill="#inherit" transform="translate(-0.000732422)"/>
            </clipPath>
        </defs>
    </symbol>

    <svg xmlns="http://www.w3.org/2000/svg" id="notifications" viewBox="0 0 24 24" >
        <path fill-rule="evenodd" clip-rule="evenodd" d="M11.9985 3.80631C11.8574 3.80631 11.721 3.81041 11.5891 3.8183C9.84153 3.92283 8.81768 4.69401 8.20732 5.57688C7.57046 6.49807 7.35095 7.59493 7.35095 8.31467V11.3916C7.35095 11.4332 7.35098 11.4742 7.351 11.5148C7.35152 12.2572 7.35192 12.8306 7.17446 13.3719C7.13827 13.4823 7.09668 13.5908 7.04985 13.6969C6.82027 14.217 6.43927 14.6361 5.94597 15.1787C5.91902 15.2084 5.89173 15.2384 5.86412 15.2688C5.38824 15.793 5.08103 16.1337 4.89282 16.3934C5.20606 16.4291 5.65818 16.4307 6.35594 16.4307H17.6411C18.3389 16.4307 18.791 16.4291 19.1043 16.3934C18.916 16.1337 18.6088 15.793 18.133 15.2688C18.1053 15.2384 18.078 15.2084 18.0511 15.1787C17.5578 14.6361 17.1768 14.217 16.9472 13.6969C16.9004 13.5908 16.8588 13.4823 16.8226 13.3719C16.6451 12.8306 16.6455 12.2572 16.6461 11.5148C16.6461 11.4742 16.6461 11.4332 16.6461 11.3916V8.31467C16.6461 7.59493 16.4266 6.49807 15.7898 5.57688C15.1794 4.69401 14.1555 3.92283 12.408 3.8183C12.2761 3.81041 12.1396 3.80631 11.9985 3.80631ZM11.4869 2.01505C11.6537 2.00507 11.8242 2 11.9985 2C12.1729 2 12.3434 2.00507 12.5102 2.01505C14.801 2.15207 16.3103 3.21014 17.2234 4.53101C18.1101 5.81355 18.4046 7.29492 18.4046 8.31467V11.3916C18.4046 12.3141 18.4152 12.5702 18.4891 12.7954C18.5064 12.8483 18.5263 12.9002 18.5487 12.951C18.6443 13.1675 18.8065 13.3622 19.419 14.0369L19.4583 14.0802C19.9049 14.5721 20.2967 15.0036 20.5552 15.3715C20.8047 15.7265 21.1169 16.2738 20.953 16.9216C20.9081 17.0987 20.8367 17.2676 20.7411 17.4221C20.3917 17.987 19.7892 18.1257 19.3663 18.1804C18.9281 18.2371 18.3536 18.2371 17.6988 18.237H6.29828C5.64346 18.2371 5.06901 18.2371 4.6308 18.1804C4.20787 18.1257 3.60538 17.987 3.25595 17.4221C3.16039 17.2676 3.08892 17.0987 3.04411 16.9216C2.88022 16.2738 3.19235 15.7265 3.44184 15.3715C3.70034 15.0036 4.09216 14.5721 4.5388 14.0802L4.5781 14.0369C5.19057 13.3622 5.35279 13.1675 5.44832 12.951C5.47075 12.9002 5.49067 12.8483 5.508 12.7954C5.58184 12.5702 5.59251 12.3141 5.59251 11.3916V8.31467C5.59251 7.29492 5.88696 5.81355 6.77363 4.53101C7.68681 3.21014 9.19608 2.15207 11.4869 2.01505Z" fill="#inherit"/>
        <path d="M11.9981 22C12.912 22 13.6892 21.2877 13.9752 20.2944C14.1055 19.8419 13.7202 19.4514 13.2608 19.4514H10.7354C10.276 19.4514 9.89067 19.8419 10.021 20.2944C10.307 21.2877 11.0842 22 11.9981 22Z" fill="#inherit"/>
    </svg>


    <symbol viewBox="0 0 19 18" id="Add" xmlns="http://www.w3.org/2000/svg">
        <path d="M8.0019 17C8.0019 17.5523 8.4497 18 9.0019 18C9.5542 18 10.0019 17.5523 10.0019 17V9.9999H17.0019C17.5542 9.9999 18.0019 9.5522 18.0019 8.9999C18.0019 8.4476 17.5542 7.9999 17.0019 7.9999H10.0019V1C10.0019 0.44772 9.5542 0 9.0019 0C8.4497 0 8.0019 0.44772 8.0019 1V7.9999H1.00195C0.449673 7.9999 0.00195312 8.4476 0.00195312 8.9999C0.00195312 9.5522 0.449673 9.9999 1.00195 9.9999H8.0019V17Z"
              fill="inherit"/>
    </symbol>

    <symbol viewBox="0 0 20 14" id="Checked" xmlns="http://www.w3.org/2000/svg">
        <path d="M18.9953 1.96425C19.387 1.57492 19.3889 0.941759 18.9996 0.550049C18.6102 0.158339 17.9771 0.15642 17.5854 0.54575L6.97661 11.0903L2.41377 6.5573C2.02196 6.1681 1.3888 6.1702 0.99956 6.562C0.61032 6.9538 0.6124 7.5869 1.0042 7.9762L6.27201 13.2095C6.66206 13.597 7.29179 13.5969 7.68175 13.2093L18.9953 1.96425Z"
              fill="inherit"/>
    </symbol>

    <symbol viewBox="0 0 24 24" id="place" xmlns="http://www.w3.org/2000/svg">
        <g>
            <path id="Vector" d="M12.0014 12.0001C10.9012 12.0001 10.0011 11.1 10.0011 9.99994C10.0011 8.89988 10.9012 7.99984 12.0014 7.99984C13.1015 7.99984 14.0016 8.89988 14.0016 9.99994C14.0016 11.1 13.1015 12.0001 12.0014 12.0001ZM18.002 10.2C18.002 6.56976 15.3517 3.99962 12.0014 3.99962C8.65099 3.99962 6.0007 6.56976 6.0007 10.2C6.0007 12.5401 7.95092 15.6402 12.0014 19.3404C16.0518 15.6402 18.002 12.5401 18.002 10.2ZM12.0014 1.99951C16.2018 1.99951 20.0022 5.21969 20.0022 10.2C20.0022 13.5201 17.3319 17.4503 12.0014 22.0006C6.67078 17.4503 4.00049 13.5201 4.00049 10.2C4.00049 5.21969 7.8009 1.99951 12.0014 1.99951Z" fill="#inherit"/>
        </g>
    </symbol>

    <symbol id="notebook" viewBox="0 0 25 24"  xmlns="http://www.w3.org/2000/svg">
        <path fill-rule="evenodd" clip-rule="evenodd" d="M13.1436 3.43916C12.8122 3.43916 12.5435 3.70783 12.5435 4.03924V4.36255H13.7437V4.03924C13.7437 3.70783 13.475 3.43916 13.1436 3.43916ZM15.5437 4.36255V4.03924C15.5437 2.71371 14.4691 1.63916 13.1436 1.63916C11.818 1.63916 10.7435 2.71371 10.7435 4.03924V4.36255H9.04863C6.67079 4.36255 4.74316 6.29018 4.74316 8.66802V17.7435C4.74316 20.1214 6.67079 22.049 9.04864 22.049H16.8099C19.1878 22.049 21.1154 20.1214 21.1154 17.7435V8.66802C21.1154 6.29018 19.1878 4.36255 16.8099 4.36255H15.5437ZM9.04863 6.16255C7.6649 6.16255 6.54316 7.28429 6.54316 8.66802V17.7435C6.54316 19.1273 7.6649 20.249 9.04864 20.249H16.8099C18.1936 20.249 19.3154 19.1273 19.3154 17.7435V8.66802C19.3154 7.28429 18.1936 6.16255 16.8099 6.16255H9.04863ZM8.60052 9.34764C8.60052 8.85059 9.00346 8.44764 9.50052 8.44764H16.358C16.8551 8.44764 17.258 8.85059 17.258 9.34764C17.258 9.8447 16.8551 10.2476 16.358 10.2476H9.50052C9.00346 10.2476 8.60052 9.8447 8.60052 9.34764ZM8.60052 12.5249C8.60052 12.0279 9.00346 11.6249 9.50052 11.6249H16.358C16.8551 11.6249 17.258 12.0279 17.258 12.5249C17.258 13.022 16.8551 13.4249 16.358 13.4249H9.50052C9.00346 13.4249 8.60052 13.022 8.60052 12.5249ZM9.8863 15.7022C9.8863 15.2052 10.2892 14.8022 10.7863 14.8022H15.0722C15.5693 14.8022 15.9722 15.2052 15.9722 15.7022C15.9722 16.1993 15.5693 16.6022 15.0722 16.6022H10.7863C10.2892 16.6022 9.8863 16.1993 9.8863 15.7022Z" fill="inherit" fill-opacity="0.8"/>
    </symbol>

    <symbol id="add-master" viewBox="0 0 25 24"  xmlns="http://www.w3.org/2000/svg">
        <path fill-rule="evenodd" clip-rule="evenodd" d="M15.6105 5.13044C13.9627 5.13044 12.6831 6.41058 12.6831 7.92165C12.6831 9.43273 13.9627 10.7129 15.6105 10.7129C17.2583 10.7129 18.538 9.43273 18.538 7.92165C18.538 6.41058 17.2583 5.13044 15.6105 5.13044ZM10.8831 7.92165C10.8831 5.35553 13.0307 3.33044 15.6105 3.33044C18.1904 3.33044 20.338 5.35553 20.338 7.92165C20.338 10.4878 18.1904 12.5129 15.6105 12.5129C13.0307 12.5129 10.8831 10.4878 10.8831 7.92165ZM5.08504 7.02165C5.5821 7.02165 5.98504 7.4246 5.98504 7.92165V9.79006H7.95563C8.45268 9.79006 8.85563 10.193 8.85563 10.6901C8.85563 11.1871 8.45268 11.5901 7.95563 11.5901H5.98504V13.4585C5.98504 13.9555 5.5821 14.3585 5.08504 14.3585C4.58798 14.3585 4.18504 13.9555 4.18504 13.4585V11.5901H2.21445C1.7174 11.5901 1.31445 11.1871 1.31445 10.6901C1.31445 10.193 1.7174 9.79006 2.21445 9.79006H4.18504V7.92165C4.18504 7.4246 4.58798 7.02165 5.08504 7.02165ZM15.6105 15.7427C10.6846 15.7427 9.43829 18.498 9.32926 19.5495C9.27799 20.0439 8.83564 20.4031 8.34123 20.3519C7.84683 20.3006 7.48759 19.8583 7.53886 19.3639C7.74878 17.3393 9.81956 13.9427 15.6105 13.9427C21.4015 13.9427 23.4723 17.3393 23.6822 19.3639C23.7335 19.8583 23.3742 20.3006 22.8798 20.3519C22.3854 20.4031 21.9431 20.0439 21.8918 19.5495C21.7828 18.498 20.5364 15.7427 15.6105 15.7427Z" fill="inherit" fill-opacity="0.8"/>
    </symbol>

    <symbol id="ArrowRight" viewBox="0 0 24 24" fill="none" xmlns="http://www.w3.org/2000/svg">
        <path d="M10 7L15 12L10 17" stroke="#FF7648" stroke-width="2" stroke-linecap="round" stroke-linejoin="round"/>
    </symbol>

    <symbol xmlns="http://www.w3.org/2000/svg" id="star-rate"  viewBox="0 0 24 24" >
        <path d="M14.4303 9.61158L12.9602 4.77158C12.6702 3.82158 11.3301 3.82158 11.0501 4.77158L9.57001 9.61158H5.11977C4.14972 9.61158 3.74969 10.8616 4.53974 11.4216L8.17993 14.0216L6.74986 18.6316C6.45984 19.5616 7.5399 20.3116 8.30994 19.7216L12.0001 16.9216L15.6903 19.7316C16.4604 20.3216 17.5404 19.5716 17.2504 18.6416L15.8203 14.0316L19.4605 11.4316C20.2506 10.8616 19.8506 9.62158 18.8805 9.62158H14.4303V9.61158Z" fill="inherit"/>
    </symbol>

    <symbol  viewBox="0 0 24 24" id="message" xmlns="http://www.w3.org/2000/svg">
        <path d="M20.0005 2H3.99962C2.89956 2 2.00951 2.9 2.00951 4L1.99951 22L5.99973 18H20.0005C21.1005 18 22.0006 17.1 22.0006 16V4C22.0006 2.9 21.1005 2 20.0005 2ZM17.0003 14H6.99978C6.44975 14 5.99973 13.55 5.99973 13C5.99973 12.45 6.44975 12 6.99978 12H17.0003C17.5504 12 18.0004 12.45 18.0004 13C18.0004 13.55 17.5504 14 17.0003 14ZM17.0003 11H6.99978C6.44975 11 5.99973 10.55 5.99973 10C5.99973 9.45 6.44975 9 6.99978 9H17.0003C17.5504 9 18.0004 9.45 18.0004 10C18.0004 10.55 17.5504 11 17.0003 11ZM17.0003 8H6.99978C6.44975 8 5.99973 7.55 5.99973 7C5.99973 6.45 6.44975 6 6.99978 6H17.0003C17.5504 6 18.0004 6.45 18.0004 7C18.0004 7.55 17.5504 8 17.0003 8Z" fill="inherit"/>
    </symbol>

    <symbol id="edit" viewBox="0 0 24 24" fill="none" xmlns="http://www.w3.org/2000/svg">
        <path fill-rule="evenodd" clip-rule="evenodd" d="M16.2101 2.76491C16.4031 2.74324 16.5979 2.74324 16.791 2.76491C17.3168 2.82395 17.7398 3.06747 18.1192 3.36445C18.4743 3.64238 18.8666 4.02957 19.318 4.47504L19.3887 4.54481C19.8513 5.00133 20.2528 5.39745 20.5409 5.75652C20.8483 6.1397 21.1013 6.5687 21.1626 7.10481C21.185 7.30107 21.185 7.49923 21.1626 7.69549C21.1013 8.2316 20.8483 8.6606 20.5409 9.04379C20.2528 9.40285 19.8513 9.79898 19.3887 10.2555L9.06417 20.444C9.03915 20.4687 9.01433 20.4933 8.98968 20.5177C8.63603 20.8677 8.31525 21.1852 7.90632 21.3769C7.82921 21.4131 7.75038 21.4454 7.67011 21.4738C7.24436 21.6246 6.79303 21.6239 6.29547 21.6232C6.26077 21.6232 6.22585 21.6231 6.1907 21.6231H6.08281C5.45398 21.6231 4.90784 21.6232 4.46394 21.5728C3.99026 21.519 3.52222 21.3984 3.10862 21.078C2.93513 20.9436 2.77934 20.7878 2.64495 20.6143C2.32455 20.2007 2.20389 19.7327 2.15012 19.259C2.09974 18.8151 2.09977 18.2689 2.0998 17.6401L2.0998 17.5915C2.0998 17.5571 2.09975 17.5229 2.0997 17.489C2.09901 17.0026 2.09838 16.5616 2.24221 16.1449C2.27827 16.0404 2.32096 15.9383 2.37 15.8393C2.5656 15.4442 2.87989 15.1349 3.22658 14.7938C3.25077 14.7699 3.27512 14.746 3.2996 14.7218L13.6831 4.47502C14.1345 4.02956 14.5268 3.64238 14.8819 3.36445C15.2613 3.06747 15.6843 2.82395 16.2101 2.76491ZM16.5901 4.55367C16.5306 4.54699 16.4705 4.54699 16.411 4.55367C16.3506 4.56044 16.2398 4.58736 15.9913 4.78187C15.7277 4.98826 15.409 5.30076 14.9124 5.79083L14.4067 6.2899L17.6256 9.46645L18.0887 9.00948C18.5972 8.50761 18.9222 8.1849 19.1369 7.91732C19.3396 7.66468 19.3672 7.55194 19.3742 7.49124C19.3811 7.43071 19.3811 7.36959 19.3742 7.30906C19.3672 7.24836 19.3396 7.13563 19.1369 6.88298C18.9222 6.6154 18.5972 6.2927 18.0887 5.79083C17.5921 5.30076 17.2734 4.98826 17.0097 4.78187C16.7612 4.58736 16.6504 4.56044 16.5901 4.55367ZM16.3443 10.7309L13.1254 7.55434L4.56393 16.003C4.1012 16.4597 4.02729 16.5487 3.98314 16.6379C3.96801 16.6684 3.95485 16.6999 3.94372 16.7322C3.91126 16.8262 3.8998 16.9414 3.8998 17.5915C3.8998 18.283 3.90116 18.7258 3.93864 19.056C3.97404 19.3678 4.03169 19.4652 4.06794 19.512C4.10939 19.5655 4.15743 19.6135 4.21094 19.655C4.25773 19.6912 4.3551 19.7489 4.66694 19.7843C4.99716 19.8218 5.43993 19.8231 6.13145 19.8231H6.1907C6.85573 19.8231 6.97316 19.8111 7.06929 19.7771C7.09405 19.7683 7.11836 19.7583 7.14214 19.7472C7.23448 19.7039 7.32649 19.6299 7.79984 19.1628L16.3443 10.7309Z" fill="#FF7648"/>
    </symbol>

    <symbol id="Remove"  viewBox="0 0 24 24" fill="none" xmlns="http://www.w3.org/2000/svg">
        <path fill-rule="evenodd" clip-rule="evenodd" d="M13.7519 4.06207H14.2492C14.3699 4.06206 14.4631 4.06205 14.5468 4.0663C16.0311 4.14161 17.2527 5.19704 17.5788 6.59978H21.2867C21.7837 6.59978 22.1867 7.00273 22.1867 7.49978C22.1867 7.99684 21.7837 8.39978 21.2867 8.39978H6.71445C6.2174 8.39978 5.81445 7.99684 5.81445 7.49978C5.81445 7.00273 6.2174 6.59978 6.71445 6.59978H10.4223C10.7484 5.19704 11.97 4.14161 13.4543 4.0663C13.538 4.06205 13.6312 4.06206 13.7519 4.06207ZM12.3379 6.59978H15.6632C15.4181 6.17897 14.9721 5.89019 14.4556 5.86398C14.4238 5.86237 14.3805 5.86208 14.2265 5.86208H13.7746C13.6207 5.86208 13.5773 5.86237 13.5455 5.86398C13.0291 5.89019 12.583 6.17897 12.3379 6.59978ZM7.72872 10.1748C8.22227 10.1159 8.67014 10.4682 8.72905 10.9618L9.61892 18.4168C9.74112 19.4405 9.82434 20.1233 9.95145 20.6298C10.0723 21.1116 10.2067 21.3176 10.358 21.4519C10.5093 21.5862 10.7298 21.6952 11.2225 21.7581C11.7405 21.8243 12.4283 21.826 13.4593 21.826H14.5418C15.5728 21.826 16.2606 21.8243 16.7787 21.7581C17.2713 21.6952 17.4918 21.5862 17.6431 21.4519C17.7944 21.3176 17.9288 21.1116 18.0497 20.6298C18.1768 20.1233 18.26 19.4405 18.3822 18.4168L19.2721 10.9618C19.331 10.4682 19.7788 10.1159 20.2724 10.1748C20.766 10.2337 21.1183 10.6816 21.0594 11.1751L20.1627 18.6876C20.0492 19.6387 19.9539 20.4367 19.7956 21.0679C19.6278 21.7365 19.3639 22.3312 18.8381 22.798C18.3122 23.2648 17.6905 23.4563 17.0067 23.5436C16.3612 23.6261 15.5576 23.6261 14.5997 23.626H13.4015C12.4436 23.6261 11.6399 23.6261 10.9944 23.5436C10.3106 23.4563 9.68888 23.2648 9.16304 22.798C8.6372 22.3312 8.37335 21.7365 8.20557 21.0679C8.04719 20.4367 7.95196 19.6387 7.83846 18.6875L6.94174 11.1751C6.88282 10.6816 7.23517 10.2337 7.72872 10.1748Z" fill="#FF7648"/>
    </symbol>

    <symbol id="add-service" viewBox="0 0 24 24" fill="none" xmlns="http://www.w3.org/2000/svg">
        <path fill-rule="evenodd" clip-rule="evenodd" d="M11.9996 1.90001C6.42153 1.90001 1.89961 6.42193 1.89961 12C1.89961 17.5781 6.42153 22.1 11.9996 22.1C17.5777 22.1 22.0996 17.5781 22.0996 12C22.0996 6.42193 17.5777 1.90001 11.9996 1.90001ZM0.0996094 12C0.0996094 5.42782 5.42742 0.100006 11.9996 0.100006C18.5718 0.100006 23.8996 5.42782 23.8996 12C23.8996 18.5722 18.5718 23.9 11.9996 23.9C5.42742 23.9 0.0996094 18.5722 0.0996094 12ZM11.9996 6.60001C12.4967 6.60001 12.8996 7.00295 12.8996 7.50001V11.1H16.4996C16.9967 11.1 17.3996 11.5029 17.3996 12C17.3996 12.4971 16.9967 12.9 16.4996 12.9H12.8996V16.5C12.8996 16.9971 12.4967 17.4 11.9996 17.4C11.5026 17.4 11.0996 16.9971 11.0996 16.5V12.9H7.49961C7.00255 12.9 6.59961 12.4971 6.59961 12C6.59961 11.5029 7.00255 11.1 7.49961 11.1H11.0996V7.50001C11.0996 7.00295 11.5026 6.60001 11.9996 6.60001Z" fill="white"/>
    </symbol>

    <symbol id="close-bg" viewBox="0 0 28 29" fill="none" xmlns="http://www.w3.org/2000/svg">
        <g clip-path="url(#clip0_37679_20254)">
            <g filter="url(#filter0_b_37679_20254)">
                <path d="M14 28.5C21.6589 28.5 28 22.1451 28 14.5C28 6.84117 21.6451 0.5 13.9863 0.5C6.34117 0.5 0 6.84117 0 14.5C0 22.1451 6.35489 28.5 14 28.5Z" fill="white" fill-opacity="0.5"/>
            </g>
            <path opacity="0.5" d="M9.17282 20.5C8.51489 20.5 8 19.9702 8 19.3115C8 18.9964 8.11441 18.6957 8.34326 18.4808L12.3051 14.5L8.34326 10.5334C8.11441 10.3043 8 10.0179 8 9.70286C8 9.02982 8.51489 8.52864 9.17282 8.52864C9.50178 8.52864 9.75923 8.64319 9.98807 8.85799L13.9785 12.8389L17.9976 8.84367C18.2407 8.60024 18.4982 8.5 18.8128 8.5C19.4707 8.5 20 9.01551 20 9.67422C20 10.0036 19.8998 10.2613 19.6423 10.5191L15.6663 14.5L19.6281 18.4666C19.8713 18.6814 19.9856 18.982 19.9856 19.3115C19.9856 19.9702 19.4565 20.5 18.7842 20.5C18.4553 20.5 18.1549 20.3855 17.9403 20.1563L13.9785 16.1754L10.031 20.1563C9.80214 20.3855 9.50178 20.5 9.17282 20.5Z" fill="black" fill-opacity="0.8"/>
        </g>
        <defs>
            <filter id="filter0_b_37679_20254" x="-40" y="-39.5" width="108" height="108" filterUnits="userSpaceOnUse" color-interpolation-filters="sRGB">
                <feFlood flood-opacity="0" result="BackgroundImageFix"/>
                <feGaussianBlur in="BackgroundImageFix" stdDeviation="20"/>
                <feComposite in2="SourceAlpha" operator="in" result="effect1_backgroundBlur_37679_20254"/>
                <feBlend mode="normal" in="SourceGraphic" in2="effect1_backgroundBlur_37679_20254" result="shape"/>
            </filter>
            <clipPath id="clip0_37679_20254">
                <rect width="28" height="28" fill="white" transform="translate(0 0.5)"/>
            </clipPath>
        </defs>
    </symbol>

    <symbol id="closed-plank"  viewBox="0 0 31 5"  xmlns="http://www.w3.org/2000/svg">
        <rect x="0.5" y="0.5" width="30" height="4" rx="2" fill="#B0B0D7"/>
    </symbol>

    <symbol id="personal-account" xmlns="http://www.w3.org/2000/svg"  viewBox="0 0 28 28" >
        <path fill-rule="evenodd" clip-rule="evenodd" d="M13.9578 3.10083H14.0439C15.8327 3.10082 17.234 3.10082 18.3568 3.19832C19.5 3.29758 20.4395 3.50309 21.2799 3.96507C22.4417 4.60381 23.3979 5.55994 24.0366 6.72179C24.4986 7.56214 24.7041 8.50167 24.8033 9.64485C24.9008 10.7677 24.9008 12.1689 24.9008 13.9578V14.0439C24.9008 15.8327 24.9008 17.234 24.8033 18.3568C24.7041 19.5 24.4986 20.4395 24.0366 21.2799C23.3979 22.4417 22.4417 23.3979 21.2799 24.0366C20.4395 24.4986 19.5 24.7041 18.3568 24.8033C17.234 24.9008 15.8327 24.9008 14.0439 24.9008H13.9578C12.1689 24.9008 10.7677 24.9008 9.64485 24.8033C8.50167 24.7041 7.56214 24.4986 6.72179 24.0366C5.55994 23.3979 4.60381 22.4417 3.96507 21.2799C3.50309 20.4395 3.29758 19.5 3.19832 18.3568C3.10082 17.234 3.10082 15.8327 3.10083 14.0439V13.9578C3.10082 12.1689 3.10082 10.7677 3.19832 9.64485C3.29758 8.50167 3.50309 7.56214 3.96507 6.72179C4.60381 5.55994 5.55994 4.60381 6.72179 3.96507C7.56214 3.50309 8.50167 3.29758 9.64485 3.19832C10.7677 3.10082 12.1689 3.10082 13.9578 3.10083ZM9.80056 4.99157C8.77605 5.08053 8.11816 5.25149 7.58895 5.54242C6.72642 6.0166 6.0166 6.72642 5.54242 7.58895C5.25149 8.11816 5.08053 8.77605 4.99157 9.80056C4.90162 10.8364 4.90083 12.1597 4.90083 14.0008C4.90083 15.842 4.90162 17.1652 4.99157 18.2011C5.08053 19.2256 5.25149 19.8835 5.54242 20.4127C6.0166 21.2752 6.72642 21.9851 7.58895 22.4592C8.11816 22.7502 8.77605 22.9211 9.80056 23.0101C10.8364 23.1 12.1597 23.1008 14.0008 23.1008C15.842 23.1008 17.1652 23.1 18.2011 23.0101C19.2256 22.9211 19.8835 22.7502 20.4127 22.4592C21.2752 21.9851 21.9851 21.2752 22.4592 20.4127C22.7502 19.8835 22.9211 19.2256 23.0101 18.2011C23.1 17.1652 23.1008 15.842 23.1008 14.0008C23.1008 12.1597 23.1 10.8364 23.0101 9.80056C22.9211 8.77605 22.7502 8.11816 22.4592 7.58895C21.9851 6.72642 21.2752 6.0166 20.4127 5.54242C19.8835 5.25149 19.2256 5.08053 18.2011 4.99157C17.1652 4.90162 15.842 4.90083 14.0008 4.90083C12.1597 4.90083 10.8364 4.90162 9.80056 4.99157ZM10.2166 7.01387H10.2897C10.6957 7.01385 11.0586 7.01383 11.359 7.04105C11.6808 7.07022 12.018 7.13621 12.3407 7.32249C12.6909 7.52468 12.9817 7.81547 13.1839 8.16566C13.3701 8.48832 13.4361 8.8256 13.4653 9.14737C13.4925 9.44778 13.4925 9.81069 13.4925 10.2166V10.2897C13.4925 10.6957 13.4925 11.0586 13.4653 11.359C13.4361 11.6808 13.3701 12.018 13.1839 12.3407C12.9817 12.6909 12.6909 12.9817 12.3407 13.1839C12.018 13.3701 11.6808 13.4361 11.359 13.4653C11.0586 13.4925 10.6957 13.4925 10.2897 13.4925H10.2166C9.81069 13.4925 9.44778 13.4925 9.14737 13.4653C8.8256 13.4361 8.48832 13.3701 8.16566 13.1839C7.81547 12.9817 7.52468 12.6909 7.32249 12.3407C7.13621 12.018 7.07022 11.6808 7.04105 11.359C7.01383 11.0586 7.01385 10.6957 7.01387 10.2897V10.2166C7.01385 9.81069 7.01383 9.44777 7.04105 9.14737C7.07022 8.8256 7.13621 8.48832 7.32249 8.16566C7.52468 7.81548 7.81548 7.52468 8.16566 7.32249C8.48832 7.13621 8.8256 7.07022 9.14737 7.04105C9.44777 7.01383 9.81069 7.01385 10.2166 7.01387ZM9.06566 8.88134C9.06557 8.88139 9.06572 8.88131 9.06566 8.88134C8.98911 8.92554 8.92554 8.98911 8.88134 9.06566C8.88131 9.06572 8.88139 9.06557 8.88134 9.06566C8.87863 9.07025 8.85121 9.11674 8.83371 9.30984C8.81474 9.51914 8.81387 9.79934 8.81387 10.2532C8.81387 10.707 8.81474 10.9872 8.83371 11.1965C8.85121 11.3896 8.8785 11.4359 8.88121 11.4405C8.92541 11.517 8.98911 11.5808 9.06566 11.625C9.07025 11.6277 9.11674 11.6551 9.30984 11.6726C9.51914 11.6916 9.79934 11.6925 10.2532 11.6925C10.707 11.6925 10.9872 11.6916 11.1965 11.6726C11.3896 11.6551 11.4359 11.6278 11.4405 11.6251C11.517 11.5809 11.5808 11.5172 11.625 11.4407C11.6277 11.4361 11.6551 11.3896 11.6726 11.1965C11.6916 10.9872 11.6925 10.707 11.6925 10.2532C11.6925 9.79934 11.6916 9.51914 11.6726 9.30984C11.6551 9.11674 11.6278 9.07048 11.6251 9.06589C11.5809 8.98934 11.5172 8.92554 11.4407 8.88134C11.4361 8.87863 11.3896 8.85121 11.1965 8.83371C10.9872 8.81474 10.707 8.81387 10.2532 8.81387C9.79934 8.81387 9.51914 8.81474 9.30984 8.83371C9.11674 8.85121 9.07026 8.87863 9.06566 8.88134ZM17.7119 7.01387H17.7851C18.191 7.01385 18.5539 7.01383 18.8543 7.04105C19.1761 7.07022 19.5133 7.13621 19.836 7.32249C20.1862 7.52468 20.477 7.81548 20.6792 8.16566C20.8655 8.48832 20.9314 8.8256 20.9606 9.14737C20.9878 9.44778 20.9878 9.81069 20.9878 10.2166V10.2897C20.9878 10.6957 20.9878 11.0586 20.9606 11.359C20.9314 11.6808 20.8655 12.018 20.6792 12.3407C20.477 12.6909 20.1862 12.9817 19.836 13.1839C19.5133 13.3701 19.1761 13.4361 18.8543 13.4653C18.5539 13.4925 18.191 13.4925 17.785 13.4925H17.7119C17.306 13.4925 16.9431 13.4925 16.6427 13.4653C16.3209 13.4361 15.9836 13.3701 15.661 13.1839C15.3108 12.9817 15.02 12.6909 14.8178 12.3407C14.6315 12.018 14.5655 11.6808 14.5364 11.359C14.5091 11.0586 14.5092 10.6957 14.5092 10.2897V10.2166C14.5092 9.81069 14.5091 9.44778 14.5364 9.14737C14.5655 8.8256 14.6315 8.48832 14.8178 8.16566C15.02 7.81547 15.3108 7.52468 15.661 7.32249C15.9836 7.13621 16.3209 7.07022 16.6427 7.04105C16.9431 7.01383 17.306 7.01385 17.7119 7.01387ZM16.561 8.88134C16.4844 8.92554 16.4208 8.98911 16.3767 9.06566C16.3739 9.07025 16.3465 9.11674 16.329 9.30984C16.31 9.51914 16.3092 9.79934 16.3092 10.2532C16.3092 10.707 16.31 10.9872 16.329 11.1965C16.3465 11.3896 16.3738 11.4359 16.3765 11.4405C16.4207 11.517 16.4844 11.5808 16.561 11.625C16.5656 11.6277 16.6121 11.6551 16.8052 11.6726C17.0145 11.6916 17.2947 11.6925 17.7485 11.6925C18.2023 11.6925 18.4825 11.6916 18.6918 11.6726C18.8849 11.6551 18.9312 11.6278 18.9358 11.6251C19.0123 11.5809 19.0761 11.5172 19.1203 11.4407C19.123 11.4361 19.1505 11.3896 19.168 11.1965C19.1869 10.9872 19.1878 10.707 19.1878 10.2532C19.1878 9.79934 19.1869 9.51914 19.168 9.30984C19.1505 9.11674 19.1232 9.07048 19.1205 9.06589C19.0763 8.98933 19.0126 8.92554 18.936 8.88134C18.9314 8.87863 18.8849 8.85121 18.6918 8.83371C18.4825 8.81474 18.2023 8.81387 17.7485 8.81387C17.2947 8.81387 17.0145 8.81474 16.8052 8.83371C16.6121 8.85121 16.5656 8.87863 16.561 8.88134ZM10.2166 14.5092H10.2897C10.6957 14.5092 11.0586 14.5091 11.359 14.5364C11.6808 14.5655 12.018 14.6315 12.3407 14.8178C12.6909 15.02 12.9817 15.3108 13.1839 15.661C13.3701 15.9836 13.4361 16.3209 13.4653 16.6427C13.4925 16.9431 13.4925 17.306 13.4925 17.7119V17.785C13.4925 18.191 13.4925 18.5539 13.4653 18.8543C13.4361 19.1761 13.3701 19.5133 13.1839 19.836C12.9817 20.1862 12.6909 20.477 12.3407 20.6792C12.018 20.8655 11.6808 20.9314 11.359 20.9606C11.0586 20.9878 10.6957 20.9878 10.2897 20.9878H10.2166C9.81069 20.9878 9.44778 20.9878 9.14737 20.9606C8.8256 20.9314 8.48832 20.8655 8.16566 20.6792C7.81548 20.477 7.52468 20.1862 7.32249 19.836C7.13621 19.5133 7.07022 19.1761 7.04105 18.8543C7.01383 18.5539 7.01385 18.191 7.01387 17.7851V17.7119C7.01385 17.306 7.01383 16.9431 7.04105 16.6427C7.07022 16.3209 7.13621 15.9836 7.32249 15.661C7.52468 15.3108 7.81547 15.02 8.16566 14.8178C8.48832 14.6315 8.8256 14.5655 9.14737 14.5364C9.44778 14.5091 9.81069 14.5092 10.2166 14.5092ZM9.06566 16.3767C8.98911 16.4208 8.92554 16.4844 8.88134 16.561C8.87863 16.5656 8.85121 16.6121 8.83371 16.8052C8.81474 17.0145 8.81387 17.2947 8.81387 17.7485C8.81387 18.2023 8.81474 18.4825 8.83371 18.6918C8.85121 18.8849 8.8785 18.9312 8.88121 18.9358C8.92541 19.0123 8.98911 19.0761 9.06566 19.1203C9.07025 19.123 9.11674 19.1505 9.30984 19.168C9.51914 19.1869 9.79934 19.1878 10.2532 19.1878C10.707 19.1878 10.9872 19.1869 11.1965 19.168C11.3896 19.1505 11.4359 19.1232 11.4405 19.1205C11.517 19.0763 11.5808 19.0125 11.625 18.936C11.6277 18.9314 11.6551 18.8849 11.6726 18.6918C11.6916 18.4825 11.6925 18.2023 11.6925 17.7485C11.6925 17.2947 11.6916 17.0145 11.6726 16.8052C11.6551 16.6121 11.6278 16.5658 11.6251 16.5612C11.5809 16.4846 11.5172 16.4208 11.4407 16.3767C11.4361 16.3739 11.3896 16.3465 11.1965 16.329C10.9872 16.31 10.707 16.3092 10.2532 16.3092C9.79934 16.3092 9.51914 16.31 9.30984 16.329C9.11674 16.3465 9.07025 16.3739 9.06566 16.3767ZM17.7119 14.5092H17.785C18.191 14.5092 18.5539 14.5091 18.8543 14.5364C19.1761 14.5655 19.5133 14.6315 19.836 14.8178C20.1862 15.02 20.477 15.3108 20.6792 15.661C20.8655 15.9836 20.9314 16.3209 20.9606 16.6427C20.9878 16.9431 20.9878 17.306 20.9878 17.7119V17.785C20.9878 18.191 20.9878 18.5539 20.9606 18.8543C20.9314 19.1761 20.8655 19.5133 20.6792 19.836C20.477 20.1862 20.1862 20.477 19.836 20.6792C19.5133 20.8655 19.1761 20.9314 18.8543 20.9606C18.5539 20.9878 18.191 20.9878 17.785 20.9878H17.7119C17.306 20.9878 16.9431 20.9878 16.6427 20.9606C16.3209 20.9314 15.9836 20.8655 15.661 20.6792C15.3108 20.477 15.02 20.1862 14.8178 19.836C14.6315 19.5133 14.5655 19.1761 14.5364 18.8543C14.5091 18.5539 14.5092 18.191 14.5092 17.785V17.7119C14.5092 17.306 14.5091 16.9431 14.5364 16.6427C14.5655 16.3209 14.6315 15.9836 14.8178 15.661C15.02 15.3108 15.3108 15.02 15.661 14.8178C15.9836 14.6315 16.3209 14.5655 16.6427 14.5364C16.9431 14.5091 17.306 14.5092 17.7119 14.5092ZM16.561 16.3767C16.4844 16.4208 16.4208 16.4844 16.3767 16.561C16.3739 16.5656 16.3465 16.612 16.329 16.8052C16.31 17.0145 16.3092 17.2947 16.3092 17.7485C16.3092 18.2023 16.31 18.4825 16.329 18.6918C16.3465 18.8849 16.3738 18.9312 16.3765 18.9358C16.4207 19.0123 16.4844 19.0761 16.561 19.1203C16.5656 19.123 16.6121 19.1505 16.8052 19.168C17.0145 19.1869 17.2947 19.1878 17.7485 19.1878C18.2023 19.1878 18.4825 19.1869 18.6918 19.168C18.8849 19.1505 18.9312 19.1232 18.9358 19.1205C19.0123 19.0763 19.0761 19.0126 19.1203 18.936C19.123 18.9314 19.1505 18.8849 19.168 18.6918C19.1869 18.4825 19.1878 18.2023 19.1878 17.7485C19.1878 17.2947 19.1869 17.0145 19.168 16.8052C19.1505 16.6121 19.1232 16.5658 19.1205 16.5612C19.0763 16.4846 19.0125 16.4208 18.936 16.3767C18.9314 16.3739 18.8849 16.3465 18.6918 16.329C18.4825 16.31 18.2023 16.3092 17.7485 16.3092C17.2947 16.3092 17.0145 16.31 16.8052 16.329C16.612 16.3465 16.5656 16.3739 16.561 16.3767Z" fill="inherit"/>
    </symbol>

    <symbol xmlns="http://www.w3.org/2000/svg" id="personal-notebook"  viewBox="0 0 28 28" >
        <path fill-rule="evenodd" clip-rule="evenodd" d="M14.7332 3.9001C14.2656 3.9001 13.8866 4.27914 13.8866 4.74672V5.27108H15.5798V4.74672C15.5798 4.27914 15.2008 3.9001 14.7332 3.9001ZM17.3798 5.27108V4.74672C17.3798 3.28503 16.1949 2.1001 14.7332 2.1001C13.2715 2.1001 12.0866 3.28503 12.0866 4.74672V5.27108H9.96526C7.27831 5.27108 5.1001 7.44928 5.1001 10.1362V20.7033C5.1001 23.3903 7.27831 25.5685 9.96526 25.5685H19.0021C21.6891 25.5685 23.8673 23.3903 23.8673 20.7033V10.1362C23.8673 7.44929 21.6891 5.27108 19.0021 5.27108H17.3798ZM9.96526 7.07108C8.27242 7.07108 6.9001 8.4434 6.9001 10.1362V20.7033C6.9001 22.3962 8.27242 23.7685 9.96526 23.7685H19.0021C20.695 23.7685 22.0673 22.3962 22.0673 20.7033V10.1362C22.0673 8.4434 20.6949 7.07108 19.0021 7.07108H9.96526ZM9.59141 10.9276C9.59141 10.4305 9.99435 10.0276 10.4914 10.0276H18.476C18.973 10.0276 19.376 10.4305 19.376 10.9276C19.376 11.4246 18.973 11.8276 18.476 11.8276H10.4914C9.99435 11.8276 9.59141 11.4246 9.59141 10.9276ZM9.59141 14.627C9.59141 14.13 9.99435 13.727 10.4914 13.727H18.476C18.973 13.727 19.376 14.13 19.376 14.627C19.376 15.1241 18.973 15.527 18.476 15.527H10.4914C9.99435 15.527 9.59141 15.1241 9.59141 14.627ZM11.0885 18.3265C11.0885 17.8295 11.4915 17.4265 11.9885 17.4265H16.9789C17.4759 17.4265 17.8789 17.8295 17.8789 18.3265C17.8789 18.8236 17.4759 19.2265 16.9789 19.2265H11.9885C11.4915 19.2265 11.0885 18.8236 11.0885 18.3265Z" fill="inherit"/>
    </symbol>

    <symbol xmlns="http://www.w3.org/2000/svg" id="personal-add" viewBox="0 0 28 28">
        <path fill-rule="evenodd" clip-rule="evenodd" d="M17.6189 5.94659C15.6709 5.94659 14.1535 7.46058 14.1535 9.25338C14.1535 11.0462 15.6709 12.5602 17.6189 12.5602C19.5668 12.5602 21.0842 11.0462 21.0842 9.25338C21.0842 7.46058 19.5668 5.94659 17.6189 5.94659ZM12.1749 9.25338C12.1749 6.30087 14.6464 3.96802 17.6189 3.96802C20.5914 3.96802 23.0628 6.30087 23.0628 9.25338C23.0628 12.2059 20.5914 14.5387 17.6189 14.5387C14.6464 14.5387 12.1749 12.2059 12.1749 9.25338ZM5.3686 8.26409C5.91497 8.26409 6.35789 8.70701 6.35789 9.25338V11.4862H8.70958C9.25595 11.4862 9.69887 11.9291 9.69887 12.4754C9.69887 13.0218 9.25595 13.4647 8.70958 13.4647H6.35789V15.6975C6.35789 16.2439 5.91497 16.6868 5.3686 16.6868C4.82223 16.6868 4.37931 16.2439 4.37931 15.6975V13.4647H2.02762C1.48125 13.4647 1.03833 13.0218 1.03833 12.4754C1.03833 11.9291 1.48125 11.4862 2.02762 11.4862H4.37931V9.25338C4.37931 8.70701 4.82223 8.26409 5.3686 8.26409ZM17.6189 18.2978C11.8578 18.2978 10.3806 21.5254 10.2504 22.7807C10.1941 23.3241 9.70783 23.719 9.16438 23.6626C8.62092 23.6063 8.22605 23.12 8.2824 22.5766C8.52346 20.2517 10.9069 16.3192 17.6189 16.3192C24.3308 16.3192 26.7143 20.2517 26.9553 22.5766C27.0117 23.12 26.6168 23.6063 26.0733 23.6626C25.5299 23.719 25.0437 23.3241 24.9873 22.7807C24.8571 21.5254 23.3799 18.2978 17.6189 18.2978Z" fill="inherit"/>
    </symbol>

    <symbol id="personal-calendar" viewBox="0 0 28 28"  xmlns="http://www.w3.org/2000/svg">
        <path d="M15 4.95C15 4.42533 14.5746 3.99962 14.0499 4.00056C11.0699 4.00592 8.43744 4.06221 7.27606 4.65396C6.14708 5.2292 5.2292 6.14708 4.65396 7.27606C4 8.55953 4 10.2397 4 13.6V14.4C4 17.7603 4 19.4405 4.65396 20.7239C5.2292 21.8529 6.14708 22.7708 7.27606 23.346C8.55953 24 10.2397 24 13.6 24H14.4C17.7603 24 19.4405 24 20.7239 23.346C21.8529 22.7708 22.7708 21.8529 23.346 20.7239C23.9378 19.5626 23.9941 14.98 23.9994 12C24.0004 11.4753 23.5747 11.0499 23.05 11.0499C22.5253 11.0499 22.1002 11.475 22.0995 11.9996C22.0973 13.5986 22.0858 17.4371 22.0246 18.1861C21.9524 19.0691 21.8209 19.5321 21.6531 19.8614C21.26 20.6328 20.6328 21.26 19.8614 21.6531C19.5321 21.8209 19.0691 21.9524 18.1861 22.0246C17.2809 22.0985 16.1115 22.1 14.4 22.1H13.6C11.8885 22.1 10.7191 22.0985 9.81393 22.0246C8.93092 21.9524 8.46789 21.8209 8.13864 21.6531C7.36717 21.26 6.73995 20.6328 6.34687 19.8614C6.17911 19.5321 6.04758 19.0691 5.97544 18.1861C5.90148 17.2809 6 15.2115 6 13.5H22.0956L22.6665 11.5499H5.97544C5.97544 9.83844 5.90148 10.7191 5.97544 9.81393C6.04758 8.93092 6.17911 8.46789 6.34687 8.13864C6.73995 7.36717 7.36717 6.73995 8.13864 6.34687C8.46789 6.17911 8.93092 6.04758 9.81393 5.97544C10.5629 5.91424 12.4513 5.90267 14.0503 5.9005C14.575 5.89978 15 5.47467 15 4.95Z" fill="inherit"/>
        <path d="M24 7C24 8.65685 22.6569 10 21 10C19.3431 10 18 8.65685 18 7C18 5.34315 19.3431 4 21 4C22.6569 4 24 5.34315 24 7Z" fill="inherit"/>
    </symbol>

    <symbol id="more_time" viewBox="0 0 24 24" fill="none" xmlns="http://www.w3.org/2000/svg">
        <path d="M10.25 8C9.83996 8 9.49994 8.34 9.49994 8.75V13.44C9.49994 13.79 9.67995 14.11 9.96997 14.29L13.6102 16.53C13.9402 16.73 14.3702 16.64 14.5802 16.32C14.8102 15.98 14.7002 15.52 14.3502 15.31L11 13.3V8.75C11 8.34 10.66 8 10.25 8Z" fill="#FF7648"/>
        <path d="M17.4204 12C17.4704 12.33 17.5004 12.66 17.5004 13C17.5004 16.9 14.4002 20 10.5 20C6.59979 20 3.49962 16.9 3.49962 13C3.49962 9.1 6.59979 6 10.5 6C11.2 6 11.8701 6.1 12.5001 6.29V4.23C11.8601 4.08 11.19 4 10.5 4C5.49973 4 1.49951 8 1.49951 13C1.49951 18 5.49973 22 10.5 22C15.5003 22 19.5005 18 19.5005 13C19.5005 12.66 19.4805 12.33 19.4405 12H17.4204Z" fill="#FF7648"/>
        <path d="M21.5006 5H19.5005V3C19.5005 2.45 19.0505 2 18.5004 2C17.9504 2 17.5004 2.45 17.5004 3V5H15.5003C14.9502 5 14.5002 5.45 14.5002 6C14.5002 6.55 14.9502 7 15.5003 7H17.5004V9C17.5004 9.55 17.9504 10 18.5004 10C19.0505 10 19.5005 9.55 19.5005 9V7H21.5006C22.0506 7 22.5006 6.55 22.5006 6C22.5006 5.45 22.0506 5 21.5006 5Z" fill="#FF7648"/>
    </symbol>

    <symbol id="highlight_off" viewBox="0 0 24 24" fill="none" xmlns="http://www.w3.org/2000/svg">
        <path d="M13.8902 8.7L12.0001 10.59L10.11 8.7C9.71993 8.31 9.0899 8.31 8.69987 8.7C8.30985 9.09 8.30985 9.72 8.69987 10.11L10.59 12L8.69987 13.89C8.30985 14.28 8.30985 14.91 8.69987 15.3C9.0899 15.69 9.71993 15.69 10.11 15.3L12.0001 13.41L13.8902 15.3C14.2802 15.69 14.9102 15.69 15.3002 15.3C15.6903 14.91 15.6903 14.28 15.3002 13.89L13.4101 12L15.3002 10.11C15.6903 9.72 15.6903 9.09 15.3002 8.7C14.9102 8.32 14.2702 8.32 13.8902 8.7ZM12.0001 2C6.46975 2 1.99951 6.47 1.99951 12C1.99951 17.53 6.46975 22 12.0001 22C17.5304 22 22.0006 17.53 22.0006 12C22.0006 6.47 17.5304 2 12.0001 2ZM12.0001 20C7.58981 20 3.99962 16.41 3.99962 12C3.99962 7.59 7.58981 4 12.0001 4C16.4103 4 20.0005 7.59 20.0005 12C20.0005 16.41 16.4103 20 12.0001 20Z" fill="#FF7648"/>
    </symbol>

    <symbol id="add-record" viewBox="0 0 24 24" fill="none" xmlns="http://www.w3.org/2000/svg">
        <path d="M18.0007 13H13.0004V18C13.0004 18.55 12.5504 19 12.0004 19C11.4503 19 11.0003 18.55 11.0003 18V13H6.00005C5.45002 13 5 12.55 5 12C5 11.45 5.45002 11 6.00005 11H11.0003V6C11.0003 5.45 11.4503 5 12.0004 5C12.5504 5 13.0004 5.45 13.0004 6V11H18.0007C18.5507 11 19.0008 11.45 19.0008 12C19.0008 12.55 18.5507 13 18.0007 13Z" fill="#FF7648"/>
    </symbol>

    <symbol id="Calendar" viewBox="0 0 24 24" fill="none" xmlns="http://www.w3.org/2000/svg">
        <path d="M12.9995 2.95C12.9995 2.42533 12.5741 1.99962 12.0495 2.00056C9.06945 2.00592 6.43695 2.06221 5.27557 2.65396C4.1466 3.2292 3.22871 4.14708 2.65347 5.27606C1.99951 6.55953 1.99951 8.23969 1.99951 11.6V12.4C1.99951 15.7603 1.99951 17.4405 2.65347 18.7239C3.22871 19.8529 4.1466 20.7708 5.27557 21.346C6.55904 22 8.2392 22 11.5995 22H12.3995C15.7598 22 17.44 22 18.7235 21.346C19.8524 20.7708 20.7703 19.8529 21.3456 18.7239C21.9373 17.5626 21.9936 12.98 21.9989 10C21.9999 9.47533 21.5742 9.04995 21.0495 9.04995C20.5248 9.04995 20.0997 9.47497 20.099 9.99964C20.0968 11.5986 20.0853 15.4371 20.0241 16.1861C19.9519 17.0691 19.8204 17.5321 19.6526 17.8614C19.2596 18.6328 18.6323 19.26 17.8609 19.6531C17.5316 19.8209 17.0686 19.9524 16.1856 20.0246C15.2804 20.0985 14.111 20.1 12.3995 20.1H11.5995C9.888 20.1 8.71864 20.0985 7.81344 20.0246C6.93043 19.9524 6.4674 19.8209 6.13815 19.6531C5.36669 19.26 4.73947 18.6328 4.34639 17.8614C4.17863 17.5321 4.04709 17.0691 3.97495 16.1861C3.90099 15.2809 3.99951 13.2115 3.99951 11.5H20.0951L20.666 9.54995H3.97495C3.97495 7.83844 3.90099 8.71913 3.97495 7.81393C4.04709 6.93092 4.17863 6.46789 4.34639 6.13864C4.73947 5.36717 5.36669 4.73995 6.13815 4.34687C6.4674 4.17911 6.93043 4.04758 7.81344 3.97544C8.56244 3.91424 10.4508 3.90267 12.0498 3.9005C12.5745 3.89978 12.9995 3.47467 12.9995 2.95Z" fill="#FF7648"/>
        <path d="M21.9995 5C21.9995 6.65685 20.6564 8 18.9995 8C17.3427 8 15.9995 6.65685 15.9995 5C15.9995 3.34315 17.3427 2 18.9995 2C20.6564 2 21.9995 3.34315 21.9995 5Z" fill="#FF7648"/>
    </symbol>

    <symbol id="back"  viewBox="0 0 20 20" fill="none" xmlns="http://www.w3.org/2000/svg">
        <path d="M8.16367 6.49749V5.17249C8.16367 4.43083 7.26367 4.05583 6.73867 4.58083L2.91367 8.40583C2.58867 8.73083 2.58867 9.25583 2.91367 9.58083L6.73867 13.4058C7.26367 13.9308 8.16367 13.5642 8.16367 12.8225V11.4142C12.3303 11.4142 15.247 12.7475 17.3303 15.6642C16.497 11.4975 13.997 7.33083 8.16367 6.49749Z" fill="black" fill-opacity="0.8"/>
    </symbol>

    <symbol id="personal-smile" xmlns="http://www.w3.org/2000/svg" viewBox="0 0 28 28" >
        <path d="M12.4687 11.3235C12.4687 12.1391 11.9104 12.8003 11.2217 12.8003C10.5329 12.8003 9.97461 12.1391 9.97461 11.3235C9.97461 10.5079 10.5329 9.84668 11.2217 9.84668C11.9104 9.84668 12.4687 10.5079 12.4687 11.3235Z" fill="inherit"/>
        <path d="M18.4547 11.3235C18.4547 12.1391 17.8963 12.8003 17.2076 12.8003C16.5189 12.8003 15.9605 12.1391 15.9605 11.3235C15.9605 10.5079 16.5189 9.84668 17.2076 9.84668C17.8963 9.84668 18.4547 10.5079 18.4547 11.3235Z" fill="inherit"/>
        <path fill-rule="evenodd" clip-rule="evenodd" d="M13.9683 4.92877C8.99234 4.92877 4.98102 8.90601 4.98102 13.7847C4.98102 18.6633 8.99234 22.6405 13.9683 22.6405C18.9442 22.6405 22.9555 18.6633 22.9555 13.7847C22.9555 8.90601 18.9442 4.92877 13.9683 4.92877ZM3.00244 13.7847C3.00244 7.78863 7.92442 2.9502 13.9683 2.9502C20.0121 2.9502 24.9341 7.78863 24.9341 13.7847C24.9341 19.7807 20.0121 24.6191 13.9683 24.6191C7.92442 24.6191 3.00244 19.7807 3.00244 13.7847ZM17.7907 15.3135C18.3057 15.4961 18.5751 16.0616 18.3924 16.5766L17.5087 16.2631C18.3924 16.5766 18.3922 16.5772 18.392 16.5777L18.3916 16.579L18.3907 16.5815L18.3886 16.5873L18.3835 16.601C18.3797 16.6111 18.375 16.6231 18.3695 16.6369C18.3583 16.6646 18.3435 16.6997 18.3247 16.7409C18.2871 16.8234 18.233 16.9316 18.1589 17.057C18.0112 17.3069 17.7808 17.6303 17.4392 17.9513C16.738 18.6104 15.6248 19.2043 13.9683 19.2043C12.3118 19.2043 11.1986 18.6104 10.4973 17.9514C10.1558 17.6304 9.92536 17.307 9.77762 17.057C9.70355 16.9317 9.64942 16.8235 9.61183 16.741C9.593 16.6997 9.57823 16.6647 9.5671 16.637C9.56153 16.6232 9.55686 16.6111 9.55305 16.601L9.54796 16.5873L9.54588 16.5816L9.54495 16.579L9.54452 16.5778C9.54431 16.5772 9.54411 16.5767 10.431 16.2621L9.5441 16.5766C9.36147 16.0617 9.63085 15.4962 10.1458 15.3136C10.6559 15.1327 11.2156 15.3953 11.4036 15.9008C11.4048 15.9038 11.4076 15.9104 11.4121 15.9201C11.4236 15.9453 11.4458 15.9909 11.4809 16.0502C11.5514 16.1695 11.6701 16.3383 11.8524 16.5096C12.1986 16.835 12.8314 17.2257 13.9683 17.2257C15.1052 17.2257 15.7379 16.835 16.0842 16.5096C16.2664 16.3383 16.3852 16.1694 16.4557 16.0502C16.4907 15.9909 16.513 15.9453 16.5245 15.92C16.5289 15.9103 16.5317 15.9037 16.5329 15.9007C16.7209 15.3952 17.2806 15.1326 17.7907 15.3135ZM11.4082 15.9134C11.4081 15.9132 11.4082 15.9135 11.4082 15.9134V15.9134Z" fill="inherit"/>
    </symbol>

    <symbol id="ArrowDown" viewBox="0 0 20 20"  xmlns="http://www.w3.org/2000/svg">
        <path fill-rule="evenodd" clip-rule="evenodd" d="M3.29289 6.29289C3.68342 5.90237 4.31658 5.90237 4.70711 6.29289L10 11.5858L15.2929 6.29289C15.6834 5.90237 16.3166 5.90237 16.7071 6.29289C17.0976 6.68342 17.0976 7.31658 16.7071 7.70711L10.7071 13.7071C10.3166 14.0976 9.68342 14.0976 9.29289 13.7071L3.29289 7.70711C2.90237 7.31658 2.90237 6.68342 3.29289 6.29289Z" fill="#inherit"/>
    </symbol>

    <symbol xmlns="http://www.w3.org/2000/svg" id="image" viewBox="0 0 24 24" fill="none">
        <path d="M21.0005 19V5C21.0005 3.9 20.1004 3 19.0004 3H4.99962C3.89956 3 2.99951 3.9 2.99951 5V19C2.99951 20.1 3.89956 21 4.99962 21H19.0004C20.1004 21 21.0005 20.1 21.0005 19ZM8.89983 13.98L10.9999 16.51L14.1001 12.52C14.3001 12.26 14.7001 12.26 14.9002 12.53L18.4103 17.21C18.6604 17.54 18.4203 18.01 18.0103 18.01H6.01968C5.59965 18.01 5.36964 17.53 5.62965 17.2L8.11979 14C8.3098 13.74 8.68982 13.73 8.89983 13.98Z" fill="#FF7648"/>
    </symbol>

    <symbol id="rating" viewBox="0 0 20 19" fill="none" xmlns="http://www.w3.org/2000/svg">
        <path d="M9.04894 0.927052C9.3483 0.00574112 10.6517 0.00573993 10.9511 0.927051L12.4697 5.60081C12.6035 6.01284 12.9875 6.2918 13.4207 6.2918H18.335C19.3037 6.2918 19.7065 7.53141 18.9228 8.10081L14.947 10.9894C14.5966 11.244 14.4499 11.6954 14.5838 12.1074L16.1024 16.7812C16.4017 17.7025 15.3472 18.4686 14.5635 17.8992L10.5878 15.0106C10.2373 14.756 9.7627 14.756 9.41221 15.0106L5.43648 17.8992C4.65276 18.4686 3.59828 17.7025 3.89763 16.7812L5.41623 12.1074C5.55011 11.6954 5.40345 11.244 5.05296 10.9894L1.07722 8.10081C0.293507 7.53141 0.696283 6.2918 1.66501 6.2918H6.57929C7.01252 6.2918 7.39647 6.01284 7.53035 5.60081L9.04894 0.927052Z" fill="#FF7648"/>
    </symbol>

    <symbol id="threeDots" viewBox="0 0 20 20" xmlns="http://www.w3.org/2000/svg">
        <path fill-rule="evenodd" clip-rule="evenodd" d="M10 9.375C9.65482 9.375 9.375 9.65482 9.375 10C9.375 10.3452 9.65482 10.625 10 10.625C10.3452 10.625 10.625 10.3452 10.625 10C10.625 9.65482 10.3452 9.375 10 9.375ZM8.125 10C8.125 8.96447 8.96447 8.125 10 8.125C11.0355 8.125 11.875 8.96447 11.875 10C11.875 11.0355 11.0355 11.875 10 11.875C8.96447 11.875 8.125 11.0355 8.125 10Z" fill="#inherit" fill-opacity="0.8"/>
        <path fill-rule="evenodd" clip-rule="evenodd" d="M10 15.625C9.65482 15.625 9.375 15.9048 9.375 16.25C9.375 16.5952 9.65482 16.875 10 16.875C10.3452 16.875 10.625 16.5952 10.625 16.25C10.625 15.9048 10.3452 15.625 10 15.625ZM8.125 16.25C8.125 15.2145 8.96447 14.375 10 14.375C11.0355 14.375 11.875 15.2145 11.875 16.25C11.875 17.2855 11.0355 18.125 10 18.125C8.96447 18.125 8.125 17.2855 8.125 16.25Z" fill="#inherit" fill-opacity="0.8"/>
        <path fill-rule="evenodd" clip-rule="evenodd" d="M10 3.125C9.65482 3.125 9.375 3.40482 9.375 3.75C9.375 4.09518 9.65482 4.375 10 4.375C10.3452 4.375 10.625 4.09518 10.625 3.75C10.625 3.40482 10.3452 3.125 10 3.125ZM8.125 3.75C8.125 2.71447 8.96447 1.875 10 1.875C11.0355 1.875 11.875 2.71447 11.875 3.75C11.875 4.78553 11.0355 5.625 10 5.625C8.96447 5.625 8.125 4.78553 8.125 3.75Z" fill="#inherit" fill-opacity="0.8"/>
    </symbol>

    <symbol id="photo" viewBox="0 0 20 20" xmlns="http://www.w3.org/2000/svg">
        <path fill-rule="evenodd" clip-rule="evenodd" d="M6.87249 3.75792C7.19193 3.38553 7.6575 3.125 8.20312 3.125H11.7969C12.3425 3.125 12.8081 3.38553 13.1275 3.75792C13.1471 3.78082 13.1651 3.80511 13.1812 3.8306L14.1935 5.43005C14.321 5.5652 14.467 5.625 14.5703 5.625H16.875C17.3723 5.625 17.8492 5.82254 18.2008 6.17418C18.5525 6.52581 18.75 7.00272 18.75 7.5V15C18.75 15.4973 18.5525 15.9742 18.2008 16.3258C17.8492 16.6775 17.3723 16.875 16.875 16.875H3.125C2.62772 16.875 2.15081 16.6775 1.79917 16.3258C1.44754 15.9742 1.25 15.4973 1.25 15V7.5C1.25 7.00272 1.44754 6.52581 1.79917 6.17418C2.15081 5.82254 2.62772 5.625 3.125 5.625H3.28125V5.3125C3.28125 4.96732 3.56107 4.6875 3.90625 4.6875H4.84375C5.18893 4.6875 5.46875 4.96732 5.46875 5.3125V5.625C5.55093 5.625 5.66559 5.58418 5.80551 5.43155L6.81876 3.8306C6.83489 3.80511 6.85285 3.78082 6.87249 3.75792ZM7.84709 4.54317L6.83515 6.14206C6.8191 6.16742 6.80124 6.19159 6.78172 6.21438C6.49556 6.54848 6.05482 6.875 5.46875 6.875H3.125C2.95924 6.875 2.80027 6.94085 2.68306 7.05806C2.56585 7.17527 2.5 7.33424 2.5 7.5V15C2.5 15.1658 2.56585 15.3247 2.68306 15.4419C2.80027 15.5592 2.95924 15.625 3.125 15.625H16.875C17.0408 15.625 17.1997 15.5592 17.3169 15.4419C17.4342 15.3247 17.5 15.1658 17.5 15V7.5C17.5 7.33424 17.4342 7.17527 17.3169 7.05806C17.1997 6.94085 17.0408 6.875 16.875 6.875H14.5703C14.0049 6.875 13.5234 6.57061 13.2183 6.21438C13.1988 6.19159 13.1809 6.16742 13.1649 6.14206L12.1529 4.54317C12.0405 4.42517 11.9155 4.375 11.7969 4.375H8.20312C8.08449 4.375 7.95947 4.42517 7.84709 4.54317ZM10 8.125C8.61929 8.125 7.5 9.24429 7.5 10.625C7.5 12.0057 8.61929 13.125 10 13.125C11.3807 13.125 12.5 12.0057 12.5 10.625C12.5 9.24429 11.3807 8.125 10 8.125ZM6.25 10.625C6.25 8.55393 7.92893 6.875 10 6.875C12.0711 6.875 13.75 8.55393 13.75 10.625C13.75 12.6961 12.0711 14.375 10 14.375C7.92893 14.375 6.25 12.6961 6.25 10.625Z" fill="#inherit"/>
    </symbol>

    <symbol id="remove" viewBox="0 0 20 20"  xmlns="http://www.w3.org/2000/svg">
        <path fill-rule="evenodd" clip-rule="evenodd" d="M8.43567 2.49994C8.39484 2.49982 8.35438 2.50777 8.31664 2.52335C8.27889 2.53892 8.2446 2.56179 8.21572 2.59067C8.18685 2.61954 8.16397 2.65384 8.1484 2.69158C8.13283 2.72933 8.12488 2.76978 8.125 2.81061L8.125 2.81244V3.74994H11.875V2.81244L11.875 2.81061C11.8751 2.76978 11.8672 2.72933 11.8516 2.69158C11.836 2.65383 11.8131 2.61954 11.7843 2.59067C11.7554 2.5618 11.7211 2.53892 11.6834 2.52335C11.6456 2.50777 11.6052 2.49982 11.5643 2.49994L11.5625 2.49994H8.4375L8.43567 2.49994ZM5.04028 4.99994L5.78003 16.836C5.78018 16.8383 5.78031 16.8406 5.78043 16.8429C5.80204 17.2635 6.0813 17.4999 6.40625 17.4999H13.5938C13.9155 17.4999 14.1935 17.2688 14.2199 16.8368L14.9597 4.99994H5.04028ZM15.6192 3.74994H13.125V2.81337C13.1255 2.60808 13.0854 2.40471 13.0071 2.21492C12.9287 2.02486 12.8135 1.85217 12.6682 1.70678C12.5228 1.5614 12.3501 1.4462 12.16 1.3678C11.9703 1.28953 11.767 1.24948 11.5617 1.24994H8.4383C8.23305 1.24948 8.02972 1.28953 7.83998 1.3678C7.64991 1.4462 7.47722 1.5614 7.33184 1.70678C7.18646 1.85217 7.07125 2.02485 6.99285 2.21492C6.91458 2.40467 6.87453 2.60799 6.875 2.81324V3.74994H4.38077C4.37733 3.74991 4.37388 3.74991 4.37042 3.74994H3.125C2.77982 3.74994 2.5 4.02977 2.5 4.37494C2.5 4.72012 2.77982 4.99994 3.125 4.99994H3.78784L4.53227 16.9108C4.58657 17.9329 5.35748 18.7499 6.40625 18.7499H13.5938C14.6524 18.7499 15.4056 17.9257 15.4676 16.9132C15.4676 16.9131 15.4676 16.9131 15.4676 16.9131L16.2122 4.99994H16.875C17.2202 4.99994 17.5 4.72012 17.5 4.37494C17.5 4.02977 17.2202 3.74994 16.875 3.74994H15.6296C15.6261 3.74991 15.6227 3.74991 15.6192 3.74994ZM7.16519 6.25034C7.51015 6.23802 7.79978 6.50768 7.8121 6.85264L8.1246 15.6026C8.13692 15.9476 7.86727 16.2372 7.52231 16.2495C7.17735 16.2619 6.88772 15.9922 6.8754 15.6473L6.5629 6.89725C6.55058 6.55229 6.82023 6.26266 7.16519 6.25034ZM12.8348 6.25034C13.1798 6.26266 13.4494 6.55229 13.4371 6.89725L13.1246 15.6473C13.1123 15.9922 12.8227 16.2619 12.4777 16.2495C12.1327 16.2372 11.8631 15.9476 11.8754 15.6026L12.1879 6.85264C12.2002 6.50768 12.4898 6.23802 12.8348 6.25034ZM10 6.24994C10.3452 6.24994 10.625 6.52977 10.625 6.87494V15.6249C10.625 15.9701 10.3452 16.2499 10 16.2499C9.65482 16.2499 9.375 15.9701 9.375 15.6249V6.87494C9.375 6.52977 9.65482 6.24994 10 6.24994Z" fill="#inherit"/>
    </symbol>

    <symbol id="image-btn" viewBox="0 0 20 20"  xmlns="http://www.w3.org/2000/svg">
        <path fill-rule="evenodd" clip-rule="evenodd" d="M2.50001 5C2.50001 4.30964 3.05965 3.75 3.75001 3.75H16.25C16.9404 3.75 17.5 4.30964 17.5 5V13.04L15.6523 11.499L15.6516 11.4984C15.2918 11.1992 14.8332 11.0454 14.3659 11.0671C13.8986 11.0888 13.4563 11.2843 13.1258 11.6153L13.1256 11.6156L12.1915 12.5496L8.77549 9.14003L8.7752 9.13974L8.77513 9.13966C8.43714 8.80194 7.98296 8.60598 7.50535 8.59183C7.02758 8.57767 6.56243 8.74652 6.20498 9.06386L6.20464 9.06416L2.50001 12.358V5ZM11.3076 13.4335L7.89207 10.0244L7.89171 10.024C7.77903 9.91136 7.62759 9.846 7.46833 9.84128C7.3091 9.83656 7.15409 9.89282 7.03495 9.99856L7.03487 9.99862L2.50001 14.0306V15C2.50001 15.6904 3.05965 16.25 3.75001 16.25H8.49116L11.3076 13.4335ZM8.74319 17.5C8.74773 17.5 8.75228 17.5 8.75682 17.5H16.25C17.6307 17.5 18.75 16.3807 18.75 15V14.3797C18.75 14.3768 18.75 14.3739 18.75 14.3711V5C18.75 3.61929 17.6307 2.5 16.25 2.5H3.75001C2.36929 2.5 1.25001 3.61929 1.25001 5V13.7473C1.25 13.7492 1.25 13.7512 1.25001 13.7531V15C1.25001 16.3807 2.36929 17.5 3.75001 17.5H8.74319ZM17.5 14.6676V15C17.5 15.6904 16.9404 16.25 16.25 16.25H10.2589L14.0099 12.499L14.0104 12.4986C14.1205 12.3882 14.268 12.323 14.4238 12.3157C14.5794 12.3085 14.7322 12.3597 14.8521 12.4593L14.8524 12.4595L17.5 14.6676ZM12.5 6.875C12.5 6.52982 12.7798 6.25 13.125 6.25C13.4702 6.25 13.75 6.52982 13.75 6.875C13.75 7.22018 13.4702 7.5 13.125 7.5C12.7798 7.5 12.5 7.22018 12.5 6.875ZM13.125 5C12.0895 5 11.25 5.83947 11.25 6.875C11.25 7.91053 12.0895 8.75 13.125 8.75C14.1605 8.75 15 7.91053 15 6.875C15 5.83947 14.1605 5 13.125 5Z" fill="#inherit"/>
    </symbol>


    <symbol id="close" viewBox="0 0 20 20"  xmlns="http://www.w3.org/2000/svg">
        <path fill-rule="evenodd" clip-rule="evenodd" d="M6.06694 5.18306C5.82286 4.93898 5.42714 4.93898 5.18306 5.18306C4.93898 5.42714 4.93898 5.82286 5.18306 6.06694L9.11612 10L5.18306 13.9331C4.93898 14.1771 4.93898 14.5729 5.18306 14.8169C5.42714 15.061 5.82286 15.061 6.06694 14.8169L10 10.8839L13.9331 14.8169C14.1771 15.061 14.5729 15.061 14.8169 14.8169C15.061 14.5729 15.061 14.1771 14.8169 13.9331L10.8839 10L14.8169 6.06694C15.061 5.82286 15.061 5.42714 14.8169 5.18306C14.5729 4.93898 14.1771 4.93898 13.9331 5.18306L10 9.11612L6.06694 5.18306Z" fill="#inherit"/>
    </symbol>

    <symbol id="pencil" viewBox="0 0 20 20"  xmlns="http://www.w3.org/2000/svg">
        <path fill-rule="evenodd" clip-rule="evenodd" d="M14.2235 4.26729C14.3894 4.2672 14.5485 4.33305 14.6658 4.45035L15.5494 5.33394C15.6667 5.45124 15.7325 5.61035 15.7324 5.77624C15.7323 5.94212 15.6663 6.10116 15.5489 6.21832L4.69888 17.0437C4.65282 17.0897 4.59987 17.1281 4.54193 17.1578L2.78451 18.0562C2.54316 18.1796 2.24978 18.1333 2.0581 17.9417C1.86641 17.75 1.82013 17.4566 1.9435 17.2153L2.84193 15.4575C2.87155 15.3995 2.91005 15.3465 2.95602 15.3004L13.7814 4.45084C13.8986 4.33341 14.0576 4.26738 14.2235 4.26729Z" fill="#inherit"/>
        <path fill-rule="evenodd" clip-rule="evenodd" d="M15.9914 2.24083C16.2258 2.00658 16.5436 1.875 16.875 1.875C17.2064 1.875 17.5242 2.00658 17.7586 2.24083L17.7589 2.24112C17.9931 2.47551 18.1247 2.79333 18.1247 3.12471C18.1247 3.45609 17.9931 3.77391 17.7589 4.0083L16.8753 4.89234C16.758 5.00961 16.599 5.07549 16.4332 5.07549C16.2674 5.07549 16.1084 5.00961 15.9912 4.89234L15.1076 4.00835C14.8636 3.76426 14.8636 3.3686 15.1077 3.12457L15.9913 2.24097L15.9914 2.24083Z" fill="#inherit"/>
    </symbol>

    <symbol id="ban" viewBox="0 0 20 20" xmlns="http://www.w3.org/2000/svg">
        <path fill-rule="evenodd" clip-rule="evenodd" d="M5.15702 4.27306C6.46369 3.16696 8.15395 2.5 10 2.5C14.1421 2.5 17.5 5.85786 17.5 10C17.5 11.846 16.833 13.5363 15.7269 14.843L5.15702 4.27306ZM4.27313 5.15693C3.16699 6.46361 2.5 8.15392 2.5 10C2.5 14.1421 5.85786 17.5 10 17.5C11.8461 17.5 13.5364 16.833 14.8431 15.7269L4.27313 5.15693ZM10 1.25C5.16751 1.25 1.25 5.16751 1.25 10C1.25 14.8325 5.16751 18.75 10 18.75C14.8325 18.75 18.75 14.8325 18.75 10C18.75 5.16751 14.8325 1.25 10 1.25Z" fill="#inherit"/>
    </symbol>

    <symbol id="calendar-add" viewBox="0 0 28 28"  xmlns="http://www.w3.org/2000/svg">
        <path d="M16.1875 14C16.9124 14 17.5 13.4124 17.5 12.6875C17.5 11.9626 16.9124 11.375 16.1875 11.375C15.4626 11.375 14.875 11.9626 14.875 12.6875C14.875 13.4124 15.4626 14 16.1875 14Z" fill="#inherit"/>
        <path d="M20.5625 14C21.2874 14 21.875 13.4124 21.875 12.6875C21.875 11.9626 21.2874 11.375 20.5625 11.375C19.8376 11.375 19.25 11.9626 19.25 12.6875C19.25 13.4124 19.8376 14 20.5625 14Z" fill="#inherit"/>
        <path d="M16.1875 18.375C16.9124 18.375 17.5 17.7874 17.5 17.0625C17.5 16.3376 16.9124 15.75 16.1875 15.75C15.4626 15.75 14.875 16.3376 14.875 17.0625C14.875 17.7874 15.4626 18.375 16.1875 18.375Z" fill="#inherit"/>
        <path d="M20.5625 18.375C21.2874 18.375 21.875 17.7874 21.875 17.0625C21.875 16.3376 21.2874 15.75 20.5625 15.75C19.8376 15.75 19.25 16.3376 19.25 17.0625C19.25 17.7874 19.8376 18.375 20.5625 18.375Z" fill="#inherit"/>
        <path d="M7.4375 18.375C8.16237 18.375 8.75 17.7874 8.75 17.0625C8.75 16.3376 8.16237 15.75 7.4375 15.75C6.71263 15.75 6.125 16.3376 6.125 17.0625C6.125 17.7874 6.71263 18.375 7.4375 18.375Z" fill="#inherit"/>
        <path d="M11.8125 18.375C12.5374 18.375 13.125 17.7874 13.125 17.0625C13.125 16.3376 12.5374 15.75 11.8125 15.75C11.0876 15.75 10.5 16.3376 10.5 17.0625C10.5 17.7874 11.0876 18.375 11.8125 18.375Z" fill="#inherit"/>
        <path d="M7.4375 22.75C8.16237 22.75 8.75 22.1624 8.75 21.4375C8.75 20.7126 8.16237 20.125 7.4375 20.125C6.71263 20.125 6.125 20.7126 6.125 21.4375C6.125 22.1624 6.71263 22.75 7.4375 22.75Z" fill="#inherit"/>
        <path d="M11.8125 22.75C12.5374 22.75 13.125 22.1624 13.125 21.4375C13.125 20.7126 12.5374 20.125 11.8125 20.125C11.0876 20.125 10.5 20.7126 10.5 21.4375C10.5 22.1624 11.0876 22.75 11.8125 22.75Z" fill="#inherit"/>
        <path d="M16.1875 22.75C16.9124 22.75 17.5 22.1624 17.5 21.4375C17.5 20.7126 16.9124 20.125 16.1875 20.125C15.4626 20.125 14.875 20.7126 14.875 21.4375C14.875 22.1624 15.4626 22.75 16.1875 22.75Z" fill="#inherit"/>
        <path fill-rule="evenodd" clip-rule="evenodd" d="M7.875 2.625C7.875 2.14175 7.48325 1.75 7 1.75C6.51675 1.75 6.125 2.14175 6.125 2.625V3.5H5.25C3.317 3.5 1.75 5.067 1.75 7V22.75C1.75 24.683 3.317 26.25 5.25 26.25H22.75C24.683 26.25 26.25 24.683 26.25 22.75V7C26.25 5.067 24.683 3.5 22.75 3.5H21.875V2.625C21.875 2.14175 21.4832 1.75 21 1.75C20.5168 1.75 20.125 2.14175 20.125 2.625V3.5H7.875V2.625ZM22.75 5.25C23.7165 5.25 24.5 6.0335 24.5 7V7.875H3.5V7C3.5 6.0335 4.2835 5.25 5.25 5.25H22.75ZM3.5 9.625V22.75C3.5 23.7165 4.2835 24.5 5.25 24.5H22.75C23.7165 24.5 24.5 23.7165 24.5 22.75V9.625H3.5Z" fill="#inherit"/>
    </symbol>

    <symbol id="settings"  viewBox="0 0 28 28"  xmlns="http://www.w3.org/2000/svg">
        <path d="M16.3406 26.5781H11.6648C11.6594 26.5781 11.6539 26.5781 11.6484 26.5781C10.9484 26.5672 10.3633 26.0805 10.2211 25.3969C10.2156 25.3805 10.2156 25.3586 10.2101 25.3422L9.84374 22.7281H9.83827C9.38983 22.5094 8.95233 22.2578 8.54218 21.968L6.08671 22.9578C6.08124 22.9578 6.07577 22.9633 6.0703 22.9633C5.40311 23.2148 4.65389 22.9578 4.28749 22.3398C4.28749 22.3344 4.28202 22.3344 4.28202 22.3289L1.9414 18.282C1.58046 17.6641 1.72264 16.8766 2.27499 16.4172C2.28046 16.4117 2.28593 16.4062 2.2914 16.4008L4.38046 14.7602L4.37499 14.7547C4.35311 14.4812 4.34218 14.2352 4.34218 13.9945C4.34218 13.7484 4.35311 13.5023 4.37499 13.2398L2.29686 11.6102C2.28593 11.6047 2.28046 11.5992 2.27499 11.5883C1.73358 11.1289 1.59686 10.3469 1.95233 9.73438L4.29296 5.6875C4.29296 5.68203 4.29843 5.68203 4.29843 5.67656C4.66483 5.06406 5.41405 4.80156 6.08124 5.05313C6.08671 5.05313 6.09218 5.05859 6.09764 5.05859L8.55311 6.04844C8.96874 5.76406 9.40077 5.5125 9.84921 5.29375L10.2156 2.67422C10.2156 2.66328 10.2211 2.65234 10.2211 2.64688C10.3359 1.95234 10.9375 1.43828 11.643 1.42188C11.6484 1.42188 11.6539 1.42188 11.6594 1.42188H16.3351C16.3406 1.42188 16.3461 1.42188 16.3516 1.42188C17.0516 1.43281 17.6367 1.91953 17.7789 2.60312C17.7844 2.61953 17.7844 2.64141 17.7898 2.65781L18.1562 5.27188H18.1617C18.6101 5.49062 19.0476 5.74219 19.4578 6.03203L21.9133 5.04219C21.9187 5.04219 21.9242 5.03672 21.9297 5.03672C22.5969 4.77969 23.3461 5.04219 23.7125 5.66016C23.7125 5.66563 23.718 5.66562 23.718 5.67109L26.0586 9.71797C26.4195 10.3359 26.2773 11.1234 25.725 11.5828C25.7195 11.5883 25.7141 11.5938 25.7086 11.5992L23.6195 13.2398C23.6195 13.2453 23.6195 13.2508 23.6195 13.2508C23.6414 13.5297 23.6523 13.7758 23.6523 14V14.0055C23.6523 14.2516 23.6414 14.5031 23.6195 14.7492L25.7086 16.3844C25.7141 16.3898 25.7195 16.3953 25.725 16.4008C26.2773 16.8602 26.4195 17.6422 26.0586 18.2656L23.718 22.3125C23.718 22.318 23.7125 22.318 23.7125 22.3234C23.3461 22.9359 22.5969 23.1984 21.9297 22.9469C21.9242 22.9469 21.9187 22.9414 21.9133 22.9414L19.4578 21.9516C19.0422 22.2359 18.6101 22.4875 18.1617 22.7063L17.7953 25.3258C17.7953 25.3367 17.7898 25.3477 17.7898 25.3531C17.6695 26.0477 17.068 26.5617 16.3625 26.5781C16.3516 26.5781 16.3461 26.5781 16.3406 26.5781ZM11.9055 24.8281H16.0945L16.4281 22.4602C16.5101 21.8859 16.8711 21.3883 17.3961 21.1313C17.768 20.9508 18.1234 20.743 18.4625 20.5133C18.9437 20.1797 19.5617 20.1086 20.114 20.3273L22.3344 21.2188L24.4234 17.6039L22.1484 15.8266C21.9023 15.6352 21.7766 15.3234 21.8203 15.0172C21.8695 14.6836 21.8914 14.3391 21.8969 14C21.8969 13.8195 21.8859 13.6227 21.8695 13.393C21.8148 12.8023 22.0664 12.2281 22.5312 11.8617L24.418 10.3797L22.3289 6.76484L20.1086 7.65625C19.5617 7.875 18.9437 7.80938 18.457 7.47031C18.1234 7.23516 17.768 7.02734 17.4016 6.85234C16.8766 6.60078 16.5101 6.10313 16.4226 5.52344L16.0945 3.17188H11.9055L11.5719 5.53984C11.4898 6.11406 11.1289 6.61172 10.6039 6.86875C10.232 7.04922 9.87655 7.25703 9.53749 7.48672C9.05624 7.82031 8.43827 7.89141 7.88593 7.67266L5.67655 6.78125L3.58749 10.3961L5.46327 11.8727C5.92811 12.2391 6.17421 12.8078 6.12499 13.3984C6.10311 13.6117 6.09764 13.8086 6.09764 14C6.09764 14.1859 6.10858 14.3828 6.12499 14.607C6.17968 15.1977 5.93358 15.7719 5.46874 16.1383L3.58202 17.6203L5.67108 21.2352L7.88593 20.3438C8.4328 20.125 9.05077 20.1906 9.53749 20.5297C9.87108 20.7648 10.2266 20.9727 10.593 21.1477C11.118 21.3992 11.4844 21.8969 11.5719 22.4766L11.9055 24.8281ZM14.0055 18.375C13.8633 18.375 13.7156 18.3695 13.5734 18.3531C12.4086 18.2383 11.3641 17.675 10.6203 16.7727C9.87655 15.8703 9.53202 14.7328 9.64686 13.568C9.88202 11.1672 12.0312 9.40625 14.432 9.64141C16.4992 9.84922 18.1453 11.5008 18.3531 13.5625C18.3805 13.8469 18.3805 14.1367 18.3531 14.4266C18.1289 16.6852 16.2258 18.375 14.0055 18.375ZM13.9945 11.375C13.3875 11.375 12.8078 11.5828 12.332 11.9711C11.7906 12.4141 11.4516 13.043 11.3859 13.743C11.3148 14.443 11.5226 15.1211 11.9711 15.668C12.4141 16.2094 13.043 16.5484 13.743 16.6141C15.1812 16.7562 16.4719 15.7008 16.614 14.257C16.6305 14.0875 16.6305 13.9125 16.614 13.743C16.4883 12.5016 15.4984 11.5117 14.257 11.3859C14.1695 11.3805 14.082 11.375 13.9945 11.375Z" fill="#inherit"/>
    </symbol>

    <symbol id="personal" xmlns="http://www.w3.org/2000/svg"  viewBox="0 0 28 28" >
        <path d="M14.0003 13.9999C11.1075 13.9999 8.55915 11.2821 8.31307 7.9409C8.1873 6.24568 8.71227 4.67623 9.78956 3.52239C10.8504 2.37948 12.3488 1.75061 14.0003 1.75061C15.6408 1.75061 17.1337 2.38495 18.2 3.53333C19.2828 4.69811 19.8078 6.26208 19.682 7.9409C19.4359 11.2821 16.8876 13.9999 14.0003 13.9999ZM14.0003 3.50052C12.841 3.50052 11.7965 3.93252 11.0692 4.71451C10.3309 5.50744 9.97002 6.61206 10.0575 7.81512C10.2325 10.2212 12.0371 12.2555 13.9948 12.2555C15.9525 12.2555 17.7571 10.2212 17.9321 7.81512C18.0196 6.62847 17.6587 5.52931 16.9095 4.72545C16.1877 3.93252 15.1486 3.50052 14.0003 3.50052Z" fill="#inherit"/>
        <path d="M23.6248 26.2492H4.3758C3.85083 26.2492 3.38054 26.0304 3.05243 25.6422C2.69698 25.2156 2.5548 24.636 2.65871 24.0509C3.11806 21.4916 4.56173 19.3371 6.82567 17.8332C8.83806 16.4935 11.3864 15.7552 14.0003 15.7552C16.6142 15.7552 19.1625 16.4935 21.1749 17.8332C23.4388 19.3425 24.8825 21.4916 25.3418 24.0509C25.4457 24.636 25.3036 25.2156 24.9481 25.6422C24.62 26.0304 24.1497 26.2492 23.6248 26.2492ZM4.38674 24.4993H23.6138C23.6248 24.4719 23.6302 24.4282 23.6193 24.3571C22.7717 19.6488 18.036 17.4997 14.0003 17.4997C9.96456 17.4997 5.22888 19.6488 4.38127 24.3571C4.37033 24.4282 4.3758 24.4719 4.38674 24.4993Z" fill="#inherit"/>
    </symbol>

    <symbol xmlns="http://www.w3.org/2000/svg" viewBox="0 0 28 28" id="heath">
        <path fill-rule="evenodd" clip-rule="evenodd" d="M13.9998 5.12561C13.0054 4.19416 11.6571 3.44797 10.1769 3.1761C8.41527 2.85253 6.46724 3.20514 4.77473 4.69982C3.64684 5.69587 2.94128 7.26291 2.70748 8.95627C2.4717 10.6639 2.7013 12.585 3.54131 14.3654C4.14903 15.6534 5.59579 17.2737 7.09917 18.7651C8.63556 20.2894 10.3462 21.7887 11.5981 22.8485C12.9899 24.0267 15.0098 24.0267 16.4016 22.8485C17.6535 21.7888 19.3641 20.2894 20.9005 18.7652C22.4039 17.2737 23.8506 15.6534 24.4584 14.3654C25.2984 12.585 25.528 10.6639 25.2922 8.95628C25.0584 7.26292 24.3528 5.69589 23.2249 4.69984C21.5324 3.20516 19.5844 2.85254 17.8227 3.17611C16.3426 3.44798 14.9943 4.19416 13.9998 5.12561ZM9.85174 4.94648C8.57802 4.71253 7.20409 4.95584 5.96622 6.04902C5.24667 6.68446 4.68322 7.80712 4.49056 9.20246C4.29988 10.5835 4.48639 12.1501 5.16921 13.5973C5.62392 14.561 6.84559 15.978 8.3669 17.4873C9.8552 18.9638 11.5255 20.4287 12.7611 21.4746C13.4817 22.0846 14.518 22.0846 15.2386 21.4746C16.4742 20.4287 18.1445 18.9638 19.6328 17.4873C21.1541 15.978 22.3757 14.561 22.8305 13.5973C23.5133 12.1501 23.6998 10.5835 23.5091 9.20247C23.3164 7.80713 22.753 6.68448 22.0334 6.04903C20.7956 4.95586 19.4216 4.71254 18.1479 4.94649C16.8436 5.18607 15.6454 5.93039 14.8767 6.80327C14.4123 7.33069 13.5874 7.33069 13.123 6.80327C12.3543 5.93039 11.1561 5.18606 9.85174 4.94648Z" fill="#inherit"/>
    </symbol>


    <symbol id="location" xmlns="http://www.w3.org/2000/svg"  viewBox="0 0 18 18" >
        <path d="M8.99997 10.6276C7.40247 10.6276 6.09747 9.33008 6.09747 7.72508C6.09747 6.12008 7.40247 4.83008 8.99997 4.83008C10.5975 4.83008 11.9025 6.12758 11.9025 7.73258C11.9025 9.33758 10.5975 10.6276 8.99997 10.6276ZM8.99997 5.95508C8.02497 5.95508 7.22247 6.75008 7.22247 7.73258C7.22247 8.71508 8.01747 9.51008 8.99997 9.51008C9.98247 9.51008 10.7775 8.71508 10.7775 7.73258C10.7775 6.75008 9.97497 5.95508 8.99997 5.95508Z" fill="#484649"/>
        <path d="M9.00001 17.07C7.89001 17.07 6.77251 16.65 5.90251 15.8175C3.69001 13.6875 1.24501 10.29 2.16751 6.2475C3.00001 2.58 6.20251 0.9375 9.00001 0.9375C9.00001 0.9375 9.00001 0.9375 9.00751 0.9375C11.805 0.9375 15.0075 2.58 15.84 6.255C16.755 10.2975 14.31 13.6875 12.0975 15.8175C11.2275 16.65 10.11 17.07 9.00001 17.07ZM9.00001 2.0625C6.81751 2.0625 4.01251 3.225 3.27001 6.495C2.46001 10.0275 4.68001 13.0725 6.69001 15C7.98751 16.2525 10.02 16.2525 11.3175 15C13.32 13.0725 15.54 10.0275 14.745 6.495C13.995 3.225 11.1825 2.0625 9.00001 2.0625Z" fill="#484649"/>
    </symbol>

    <symbol id="watch" viewBox="0 0 18 18" xmlns="http://www.w3.org/2000/svg">
        <path d="M9 17.0625C4.5525 17.0625 0.9375 13.4475 0.9375 9C0.9375 4.5525 4.5525 0.9375 9 0.9375C13.4475 0.9375 17.0625 4.5525 17.0625 9C17.0625 13.4475 13.4475 17.0625 9 17.0625ZM9 2.0625C5.175 2.0625 2.0625 5.175 2.0625 9C2.0625 12.825 5.175 15.9375 9 15.9375C12.825 15.9375 15.9375 12.825 15.9375 9C15.9375 5.175 12.825 2.0625 9 2.0625Z" fill="#484649"/>
        <path d="M11.7825 11.9476C11.685 11.9476 11.5875 11.9251 11.4975 11.8651L9.17248 10.4776C8.59498 10.1326 8.16748 9.37507 8.16748 8.70757V5.63257C8.16748 5.32507 8.42248 5.07007 8.72998 5.07007C9.03748 5.07007 9.29248 5.32507 9.29248 5.63257V8.70757C9.29248 8.97757 9.51748 9.37507 9.74998 9.51007L12.075 10.8976C12.345 11.0551 12.4275 11.4001 12.27 11.6701C12.1575 11.8501 11.97 11.9476 11.7825 11.9476Z" fill="#484649"/>
    </symbol>

    <symbol id="plus" xmlns="http://www.w3.org/2000/svg" width="21" height="20" viewBox="0 0 21 20" fill="none">
        <path d="M15.4998 10.8332H11.3332V14.9998C11.3332 15.4582 10.9582 15.8332 10.4998 15.8332C10.0415 15.8332 9.6665 15.4582 9.6665 14.9998V10.8332H5.49984C5.0415 10.8332 4.6665 10.4582 4.6665 9.99984C4.6665 9.5415 5.0415 9.1665 5.49984 9.1665H9.6665V4.99984C9.6665 4.5415 10.0415 4.1665 10.4998 4.1665C10.9582 4.1665 11.3332 4.5415 11.3332 4.99984V9.1665H15.4998C15.9582 9.1665 16.3332 9.5415 16.3332 9.99984C16.3332 10.4582 15.9582 10.8332 15.4998 10.8332Z" fill="black" fill-opacity="0.8"/>
    </symbol>

</svg>