<svg width="20" height="20" viewBox="0 0 20 20" fill="none" xmlns="http://www.w3.org/2000/svg">
    <path fill-rule="evenodd" clip-rule="evenodd" d="M10 9.375C9.65482 9.375 9.375 9.65482 9.375 10C9.375 10.3452 9.65482 10.625 10 10.625C10.3452 10.625 10.625 10.3452 10.625 10C10.625 9.65482 10.3452 9.375 10 9.375ZM8.125 10C8.125 8.96447 8.96447 8.125 10 8.125C11.0355 8.125 11.875 8.96447 11.875 10C11.875 11.0355 11.0355 11.875 10 11.875C8.96447 11.875 8.125 11.0355 8.125 10Z" fill="black" fill-opacity="0.8"/>
    <path fill-rule="evenodd" clip-rule="evenodd" d="M10 15.625C9.65482 15.625 9.375 15.9048 9.375 16.25C9.375 16.5952 9.65482 16.875 10 16.875C10.3452 16.875 10.625 16.5952 10.625 16.25C10.625 15.9048 10.3452 15.625 10 15.625ZM8.125 16.25C8.125 15.2145 8.96447 14.375 10 14.375C11.0355 14.375 11.875 15.2145 11.875 16.25C11.875 17.2855 11.0355 18.125 10 18.125C8.96447 18.125 8.125 17.2855 8.125 16.25Z" fill="black" fill-opacity="0.8"/>
    <path fill-rule="evenodd" clip-rule="evenodd" d="M10 3.125C9.65482 3.125 9.375 3.40482 9.375 3.75C9.375 4.09518 9.65482 4.375 10 4.375C10.3452 4.375 10.625 4.09518 10.625 3.75C10.625 3.40482 10.3452 3.125 10 3.125ZM8.125 3.75C8.125 2.71447 8.96447 1.875 10 1.875C11.0355 1.875 11.875 2.71447 11.875 3.75C11.875 4.78553 11.0355 5.625 10 5.625C8.96447 5.625 8.125 4.78553 8.125 3.75Z" fill="black" fill-opacity="0.8"/>
</svg>
