<svg width="30" height="30" viewBox="0 0 30 30" fill="none" xmlns="http://www.w3.org/2000/svg">
<g id="tiktok_logo">
<path id="1" d="M15 5C9.47715 5 5 9.47715 5 15C5 20.5229 9.47715 25 15 25C20.5229 25 25 20.5229 25 15C25 9.47715 20.5229 5 15 5Z" fill="url(#paint0_linear_37647_1410)"/>
<path id="1_2" d="M20 11.9362C19.6364 11.9362 19.2764 11.8602 18.9406 11.7127C18.6047 11.5651 18.2995 11.3488 18.0424 11.0762C17.7853 10.8035 17.5814 10.4799 17.4423 10.1236C17.3031 9.76739 17.2315 9.38558 17.2315 9H15.2536V17.2143C15.2533 17.5888 15.1417 17.9537 14.9349 18.2572C14.7281 18.5608 14.4364 18.7876 14.1013 18.9055C13.7661 19.0234 13.4045 19.0265 13.0676 18.9142C12.7307 18.802 12.4357 18.5801 12.2243 18.2801C12.013 17.9801 11.896 17.6171 11.89 17.2427C11.884 16.8682 11.9893 16.5013 12.1909 16.1938C12.3925 15.8864 12.6803 15.654 13.0134 15.5297C13.3465 15.4054 13.708 15.3954 14.0467 15.5012V13.4621C13.3268 13.3591 12.5945 13.4915 11.9474 13.8416C11.3004 14.1918 10.7694 14.7429 10.4255 15.4215C10.0816 16.1 9.941 16.8737 10.0226 17.6393C10.1042 18.4048 10.404 19.1257 10.8821 19.7057C11.3602 20.2858 11.9937 20.6973 12.6981 20.8854C13.4025 21.0735 14.1443 21.0292 14.8244 20.7584C15.5044 20.4877 16.0904 20.0033 16.504 19.37C16.9177 18.7367 17.1394 17.9847 17.1394 17.2143L17.1968 13.0622C18.0094 13.6949 18.9916 14.0354 19.9998 14.0338L20 11.9362Z" fill="url(#paint1_linear_37647_1410)"/>
<path id="1_3" d="M19.9998 11.9362C19.2656 11.9362 18.5614 11.6268 18.0423 11.0762C17.5231 10.5255 17.2315 9.77871 17.2315 9H15.2536V17.2143C15.2532 17.5888 15.1417 17.9537 14.9349 18.2572C14.7281 18.5608 14.4364 18.7876 14.1013 18.9055C13.7661 19.0234 13.4045 19.0265 13.0676 18.9143C12.7307 18.802 12.4357 18.5802 12.2243 18.2802C12.013 17.9802 11.896 17.6172 11.89 17.2427C11.884 16.8683 11.9893 16.5013 12.1909 16.1939C12.3925 15.8864 12.6802 15.6541 13.0133 15.5297C13.3464 15.4054 13.708 15.3954 14.0467 15.5012V13.4621C13.3268 13.3591 12.5945 13.4915 11.9474 13.8416C11.3004 14.1918 10.7694 14.7429 10.4255 15.4215C10.0816 16.1 9.941 16.8737 10.0226 17.6393C10.1042 18.4048 10.404 19.1257 10.8821 19.7057C11.3602 20.2858 11.9937 20.6973 12.6981 20.8854C13.4025 21.0735 14.1443 21.0292 14.8243 20.7584C15.5044 20.4877 16.0903 20.0033 16.504 19.37C16.9176 18.7367 17.1393 17.9847 17.1393 17.2143L17.197 13.0622C18.0097 13.6949 18.9919 14.0354 20 14.0338L19.9998 11.9362Z" fill="url(#paint2_linear_37647_1410)"/>
<path id="1_4" d="M19.9998 12.0279C19.2777 11.8812 18.6345 11.4526 18.1987 10.8274C17.6479 10.3725 17.2701 9.72405 17.134 9H15.5432V17.625C15.5432 18.0344 15.4162 18.4325 15.1817 18.7586C14.9473 19.0846 14.6181 19.3208 14.2445 19.4309C13.871 19.5411 13.4735 19.5192 13.1128 19.3686C12.7521 19.2181 12.448 18.9471 12.2469 18.5971C11.8894 18.3514 11.6275 17.9782 11.5091 17.5456C11.3907 17.113 11.4238 16.6498 11.6023 16.2408C11.7808 15.8318 12.0928 15.5043 12.4812 15.318C12.8697 15.1317 13.3086 15.0992 13.718 15.2263V13.6507C13.0159 13.6602 12.3303 13.8767 11.7386 14.2756C11.1469 14.6746 10.6727 15.2401 10.3694 15.9084C10.0662 16.5768 9.94596 17.3212 10.0224 18.0578C10.0988 18.7944 10.3688 19.4938 10.8018 20.0771C11.3517 20.5612 12.0209 20.87 12.731 20.9671C13.4412 21.0641 14.1628 20.9456 14.8114 20.6253C15.46 20.3049 16.0086 19.7961 16.3929 19.1585C16.7773 18.5208 16.9814 17.7807 16.9814 17.025L17.0423 12.6653C17.8998 13.3297 18.9362 13.6872 20 13.6855L19.9998 12.0279Z" fill="url(#paint3_linear_37647_1410)"/>
</g>
<defs>
<linearGradient id="paint0_linear_37647_1410" x1="4.94738" y1="25.0526" x2="24.9492" y2="5.05082" gradientUnits="userSpaceOnUse">
<stop stop-color="#111111"/>
<stop offset="1" stop-color="#323232"/>
</linearGradient>
<linearGradient id="paint1_linear_37647_1410" x1="10.7927" y1="19.6225" x2="19.5033" y2="11.4094" gradientUnits="userSpaceOnUse">
<stop stop-color="#B5053C"/>
<stop offset="0.233" stop-color="#C90441"/>
<stop offset="0.737" stop-color="#F0014B"/>
<stop offset="1" stop-color="#FF004F"/>
</linearGradient>
<linearGradient id="paint2_linear_37647_1410" x1="10.6701" y1="19.7524" x2="19.8456" y2="11.101" gradientUnits="userSpaceOnUse">
<stop stop-color="#00B2C9"/>
<stop offset="0.283" stop-color="#00C8D4"/>
<stop offset="0.741" stop-color="#00E6E4"/>
<stop offset="1" stop-color="#00F1EA"/>
</linearGradient>
<linearGradient id="paint3_linear_37647_1410" x1="5.03154" y1="25.6882" x2="26.3632" y2="5.4753" gradientUnits="userSpaceOnUse">
<stop stop-color="#DDE3E4"/>
<stop offset="1" stop-color="#FCF7F7"/>
</linearGradient>
</defs>
</svg>
