<svg width="30" height="30" viewBox="0 0 30 30" fill="none" xmlns="http://www.w3.org/2000/svg">
<g id="vk icon">
<path id="1" d="M15 5C9.5 5 5 9.5 5 15C5 20.5 9.5 25 15 25C20.5 25 25 20.5 25 15C25 9.5 20.5 5 15 5Z" fill="#1976D2"/>
<path id="1_2" d="M15.1226 20C10.6398 20 8.09962 16.6524 8 11H10.2414C10.2912 15.1159 11.9847 16.872 13.2797 17.2012V11H15.3716V14.5671C16.6667 14.4024 18.0115 12.811 18.4598 11H20.5517C20.2031 13.1951 18.7088 14.8415 17.6628 15.5C18.7088 16.0488 20.4023 17.4756 21 20H18.659C18.1609 18.2988 16.9157 16.9817 15.272 16.7622V20H15.1226Z" fill="white"/>
</g>
</svg>
